<svg xmlns="http://www.w3.org/2000/svg" viewBox="0 0 283.92 96.95"><defs><style>.cls-1{fill:#504a71;}</style></defs><g id="Layer_2" data-name="Layer 2"><g id="底色"><path class="cls-1" d="M127,.25a11.27,11.27,0,0,0,2.2,1.09c1.54.53,2,1.87,1.61,4.11-.5,2.65-.52,5.35-.83,8-.18,1.53-.22,3.11-.45,4.67-.18,1.16.44,1.68,1.58,1.48a1.37,1.37,0,0,1,1.2.13c.14.11.37.24.4,0,.19-1.33,1-.3,1.54-.41a.83.83,0,0,1,.92.69c.09.53-.42.54-.7.74a14.73,14.73,0,0,1-4.49,2.44,1.55,1.55,0,0,0-.23.08c-1,.58-1.48,4.11-.62,5a1.15,1.15,0,0,0,1.39.19l2.4-1.07a4.1,4.1,0,0,1,2.17-.52c.42.06.85.16,1,.63s-.16.85-.61,1.1c-1.59.9-3.16,1.82-4.75,2.72a1.92,1.92,0,0,1-.58.21c-1.86.34-2.27.71-2.51,2.63a45,45,0,0,1-2.23,9.35,4.37,4.37,0,0,0,.08,3.4,17.09,17.09,0,0,1,1,9.08,3.21,3.21,0,0,0,.19,2.32c.06.1.16.28.12.34-1,1.3.22,2.78-.35,4.12a3.69,3.69,0,0,0,0,1.25,1,1,0,0,0,.62,1,.82.82,0,0,0,1.08-.4c.78-1.37,2.15-2.17,3.13-3.34,1.18-1.41,1.1-1.86-.51-2.56a.9.9,0,0,1-.27-.2.58.58,0,0,1,.43-.44c.78-.28,1.83-.42,2-1.28a5.68,5.68,0,0,0-.31-3.69c-.27-.58-.61-.73-1.19-.43-.36.2-.75.41-1.19.09.08-.71.76-.83,1.19-1.16,1.46-1.12,1.46-2.21-.08-3.18-.44-.28-.82-.58-.82-1.16a1,1,0,0,0-.51-.95c-1.19-.49-.53-1.05,0-1.38,1.72-1,3.48-2,5.26-3a1.15,1.15,0,0,1,1.79.71c.41,1-.26,1.21-1,1.46a7,7,0,0,0-1.25.56c-.66.37-1,.85-.52,1.63a3.29,3.29,0,0,1,.36,1.19A1.73,1.73,0,0,0,136,49c1.3.41,1.47.76.44,1.73s-.94,2.32-.72,3.5c.16.85,1.33,1,1.89,1.79s.74,1.06-.25,1.53c-2,1-3.61,4.78-2.92,7a1.12,1.12,0,0,0,1.82.61,14.4,14.4,0,0,1,4.36-1.34A4,4,0,0,1,145,65.06a7.12,7.12,0,0,1,1.45,7.09,30.29,30.29,0,0,1-3.6,7.94,4.34,4.34,0,0,1-3.32,2c-1.69.18-3.47.06-5.14.18-2.22.16-4.08-1.16-6.22-.89a.75.75,0,0,1-.85-.75c0-.52.58-.37.92-.37A41.78,41.78,0,0,0,134,80c4-.62,6.59-2.91,8.47-6.31a8.31,8.31,0,0,0,1-6,2.69,2.69,0,0,0-3.18-2.12,104.53,104.53,0,0,0-11.9,3.47,9.66,9.66,0,0,0-2.94,1.24c-.77.62-2.11-.23-2-1.29a15.78,15.78,0,0,1,.93-5.61c.12-.3.32-.68.24-.95-.69-2.4.48-4.82-.19-7.23-.28-1,.39-2.1-.24-3.16s-.9-1.08-1.74-.41a4.74,4.74,0,0,0-1.2,1.88c-1.85,3.74-4,7.21-7.47,9.74-.4.29-.92,1-1.37.57s.26-.94.51-1.36c1.6-2.62,3.39-5.15,4.84-7.86a26.34,26.34,0,0,0,1.82-5.28,12.81,12.81,0,0,1,.63-2.16,45.26,45.26,0,0,0,3.12-10.37c.29-1.31,0-1.53-1.31-1.3a18.94,18.94,0,0,1-4.12.31,2.71,2.71,0,0,1-1.56-.44c1.89-1.38,4.18-1.71,6.18-2.74a3.13,3.13,0,0,0,1.85-2.71c.07-.66.13-1.32.24-2a1.09,1.09,0,0,0-1.51-1.32c-.87.27-1.67.77-2.53,1.08a3.81,3.81,0,0,1-3.59-.07c-.65-.44-.88-1,.11-1.32a21.3,21.3,0,0,1,4.57-1.58c1.2-.15,2.16-1.06,3.13-1.7.7-.46.54-1.7.6-2.6.24-3.79.52-7.57.57-11.38a12.15,12.15,0,0,0-.06-3.66c-.38-1.38-.75-1.72-2.11-1.51a4.07,4.07,0,0,1,2-3.65Zm2.77,67.12a7.54,7.54,0,0,0,2.3-.6c.91-.38.66-1.31.68-2,0-.47-.67-.74-1.06-.6-1,.34-2.32.25-2.94,1.51-.21.43-.51.79-.31,1.26S129.06,67.35,129.72,67.37Z"/><path class="cls-1" d="M134,82.49a10.62,10.62,0,0,1-2.74-.48,7.57,7.57,0,0,0-3.07-.42,1.07,1.07,0,0,1-.82-.27.94.94,0,0,1-.3-.75c0-.67.67-.63,1-.61h.19c.59,0,1.18,0,1.75,0a23.54,23.54,0,0,0,4-.17c3.64-.57,6.28-2.54,8.29-6.19a8.06,8.06,0,0,0,1-5.84,2.66,2.66,0,0,0-1.18-1.66,2.19,2.19,0,0,0-1.7-.27l-2.48.64a75.94,75.94,0,0,0-9.39,2.82c-.32.12-.63.22-.94.31a5.3,5.3,0,0,0-1.93.89,1.34,1.34,0,0,1-1.48.09,1.74,1.74,0,0,1-1-1.59v-.19a15.6,15.6,0,0,1,.94-5.5l.05-.12a1.24,1.24,0,0,0,.18-.66,9.78,9.78,0,0,1-.11-3.73,9.14,9.14,0,0,0-.08-3.5,3.67,3.67,0,0,1,0-1.4,2.59,2.59,0,0,0-.2-1.71c-.26-.45-.45-.65-.63-.69s-.4.08-.74.35a3.56,3.56,0,0,0-1,1.41c-.06.13-.12.27-.18.39-1.54,3.12-3.79,7.05-7.54,9.83a1.6,1.6,0,0,0-.26.22c-.36.32-.91.81-1.43.33s0-1,.23-1.36a2.61,2.61,0,0,0,.24-.3c.57-.94,1.17-1.87,1.75-2.77,1.06-1.65,2.15-3.35,3.08-5.09a21.39,21.39,0,0,0,1.58-4.43c.07-.27.14-.53.22-.8s.11-.44.16-.66a7.38,7.38,0,0,1,.49-1.53,43.19,43.19,0,0,0,3-9.85l.11-.47c0-.21.18-.84,0-1s-.81-.05-1.06,0a18.85,18.85,0,0,1-4.17.32,2.92,2.92,0,0,1-1.69-.49l-.28-.2.27-.2a14.32,14.32,0,0,1,3.72-1.75,19.91,19.91,0,0,0,2.49-1,2.93,2.93,0,0,0,1.73-2.52v-.17c.06-.6.13-1.22.23-1.83a.85.85,0,0,0-1.2-1.05,12.42,12.42,0,0,0-1.32.56,10.6,10.6,0,0,1-1.2.52,4,4,0,0,1-3.81-.1c-.6-.4-.69-.76-.66-1s.32-.58.83-.76.9-.36,1.33-.55a12.39,12.39,0,0,1,3.29-1,5.38,5.38,0,0,0,2.33-1.18c.22-.16.46-.34.7-.49.44-.3.45-1.06.46-1.81,0-.2,0-.41,0-.59l.11-1.65c.21-3.18.42-6.47.47-9.72,0-.36,0-.72,0-1.08a7.05,7.05,0,0,0-.1-2.51c-.37-1.32-.65-1.52-1.84-1.33l-.29,0V3.9A4.36,4.36,0,0,1,125.56,0l.06,0H127l.06,0a11,11,0,0,0,2.15,1.06c1.65.58,2.23,2,1.78,4.39a42.59,42.59,0,0,0-.57,5c-.07,1-.15,2-.27,3-.07.64-.12,1.29-.17,1.93-.07.9-.14,1.83-.28,2.74a1.19,1.19,0,0,0,.2,1,1.29,1.29,0,0,0,1.1.19h.07a1.53,1.53,0,0,1,1.33.18l0,0a.92.92,0,0,1,.4-.66,1,1,0,0,1,.9.09,1,1,0,0,0,.41.12,1,1,0,0,1,.73.16,1.08,1.08,0,0,1,.48.73c.1.58-.33.76-.58.87l-.22.11A15.13,15.13,0,0,1,130,23.47l-.07,0-.12,0a3.18,3.18,0,0,0-.89,2.12,3.42,3.42,0,0,0,.33,2.43.89.89,0,0,0,1.12.14l.82-.36,1.58-.7.09,0a4.16,4.16,0,0,1,2.21-.5,1.23,1.23,0,0,1,1.19.8,1.17,1.17,0,0,1-.72,1.38l-2.71,1.56-2,1.17a2.16,2.16,0,0,1-.66.23c-1.79.33-2.09.65-2.31,2.42a45.24,45.24,0,0,1-2.25,9.4,4.16,4.16,0,0,0,.08,3.23,17.3,17.3,0,0,1,1,9.21l0,.17a2.7,2.7,0,0,0,.18,2c.18.28.21.47.11.61a2.6,2.6,0,0,0-.25,2.08,3.59,3.59,0,0,1-.07,2,1.71,1.71,0,0,0,0,.73,3.09,3.09,0,0,1,0,.43.75.75,0,0,0,.48.77.6.6,0,0,0,.77-.3,8.43,8.43,0,0,1,1.89-2.13,13.51,13.51,0,0,0,1.26-1.25c.58-.69.8-1.09.74-1.35s-.41-.5-1.16-.82a1.08,1.08,0,0,1-.26-.18l-.06,0-.13-.09,0-.16a.81.81,0,0,1,.59-.62l.45-.15c.66-.2,1.28-.39,1.41-1a5.38,5.38,0,0,0-.29-3.53q-.17-.36-.36-.42a.67.67,0,0,0-.49.11A1.25,1.25,0,0,1,130,53l-.12-.08,0-.14a1.42,1.42,0,0,1,.92-1.12,2.46,2.46,0,0,0,.36-.22q1-.78,1-1.47c0-.44-.37-.87-1-1.3a1.63,1.63,0,0,1-.94-1.37c0-.21-.05-.6-.35-.72-.53-.22-.8-.48-.82-.81s.44-.79.79-1c1.74-1.06,3.52-2.06,5.28-3a1.48,1.48,0,0,1,1.24-.15,1.56,1.56,0,0,1,.89,1,1.26,1.26,0,0,1,.06,1,1.74,1.74,0,0,1-1.11.73l-.07,0a7.49,7.49,0,0,0-1.21.54c-.35.2-.55.4-.6.61a.93.93,0,0,0,.17.69,3.28,3.28,0,0,1,.39,1.28c.08.62.46,1,1.22,1.24s1.17.44,1.26.85-.3.88-.74,1.29c-1,.92-.87,2-.64,3.27.08.39.44.62.87.88a3.42,3.42,0,0,1,1,.81c.31.43.59.8.49,1.17s-.31.49-.83.73c-1.91.9-3.45,4.59-2.8,6.7a.94.94,0,0,0,.53.65,1.13,1.13,0,0,0,.93-.17,9.54,9.54,0,0,1,3.27-1.11l1.16-.25a4.18,4.18,0,0,1,4.64,1.36,7.35,7.35,0,0,1,1.5,7.31,30.67,30.67,0,0,1-3.63,8,4.64,4.64,0,0,1-3.51,2.08,27.62,27.62,0,0,1-2.88.11c-.75,0-1.53,0-2.26.06Zm-5.25-1.43a10.08,10.08,0,0,1,2.64.47,8.7,8.7,0,0,0,3,.45c.75,0,1.54-.06,2.29-.06.95,0,1.92,0,2.84-.11A4.16,4.16,0,0,0,142.6,80a30.19,30.19,0,0,0,3.58-7.88,6.89,6.89,0,0,0-1.41-6.86A3.69,3.69,0,0,0,140.63,64c-.39.1-.79.19-1.18.27a8.86,8.86,0,0,0-3.11,1,1.59,1.59,0,0,1-1.36.21,1.37,1.37,0,0,1-.83-1c-.72-2.34.93-6.3,3.06-7.3.35-.16.54-.3.56-.4s-.2-.47-.41-.76a3,3,0,0,0-.85-.68c-.47-.3-1-.61-1.08-1.21-.2-1.07-.47-2.54.79-3.72.53-.5.61-.72.59-.82s-.35-.31-.93-.49a2,2,0,0,1-1.56-1.64,2.94,2.94,0,0,0-.32-1.1,1.35,1.35,0,0,1-.23-1.06,1.57,1.57,0,0,1,.83-.92,8.64,8.64,0,0,1,1.3-.58l.07,0c.37-.13.72-.24.82-.47a.85.85,0,0,0-.07-.64,1.13,1.13,0,0,0-.6-.71,1.05,1.05,0,0,0-.85.13c-1.75.91-3.51,1.91-5.24,3-.53.32-.56.51-.56.56s.15.23.52.38a1.18,1.18,0,0,1,.65,1.18c0,.43.27.67.72,1a2.3,2.3,0,0,1,1.27,1.7,2.36,2.36,0,0,1-1.18,1.88,2.72,2.72,0,0,1-.42.27c-.34.18-.56.31-.64.58.24.1.47,0,.79-.18a1.11,1.11,0,0,1,.89-.15,1.21,1.21,0,0,1,.65.68,5.88,5.88,0,0,1,.32,3.85c-.19.85-1,1.1-1.74,1.32l-.44.14a.47.47,0,0,0-.22.14s.05,0,.07,0c.78.34,1.33.67,1.45,1.17s-.24,1.05-.84,1.78a13.38,13.38,0,0,1-1.31,1.3,8.07,8.07,0,0,0-1.79,2,1.08,1.08,0,0,1-1.4.51,1.24,1.24,0,0,1-.77-1.24c0-.12,0-.24,0-.38a2.17,2.17,0,0,1,.08-.95,3.1,3.1,0,0,0,0-1.74,3.08,3.08,0,0,1,.28-2.36.61.61,0,0,0-.07-.14,3.18,3.18,0,0,1-.25-2.31l0-.17a16.78,16.78,0,0,0-1-9,4.65,4.65,0,0,1-.08-3.57,45.69,45.69,0,0,0,2.22-9.3c.25-2,.7-2.47,2.71-2.84a1.85,1.85,0,0,0,.5-.18l2-1.17,2.72-1.56c.45-.25.59-.47.49-.81s-.35-.4-.78-.45a3.69,3.69,0,0,0-1.95.46l-.09,0-1.58.7-.82.36a1.38,1.38,0,0,1-1.66-.23c-.56-.55-.61-1.83-.47-2.86.06-.47.33-2,1.14-2.48a.84.84,0,0,1,.23-.09h.06a15.12,15.12,0,0,0,4.41-2.41,1.24,1.24,0,0,1,.3-.16c.29-.12.32-.16.3-.33a.65.65,0,0,0-.27-.41.49.49,0,0,0-.35-.09,1.28,1.28,0,0,1-.71-.14c-.17-.08-.39-.16-.47-.12s-.12.1-.18.46a.38.38,0,0,1-.22.31.61.61,0,0,1-.57-.17,1.12,1.12,0,0,0-.94-.09h-.06a1.67,1.67,0,0,1-1.53-.31,1.57,1.57,0,0,1-.35-1.45c.14-.9.21-1.82.28-2.71.05-.64.1-1.3.17-1.94.12-1,.2-2,.27-3a43.68,43.68,0,0,1,.57-5c.41-2.13-.05-3.35-1.45-3.83A11.46,11.46,0,0,1,126.88.49h-1.11A3.82,3.82,0,0,0,124,3.62c1.35-.13,1.74.42,2.1,1.73A7.62,7.62,0,0,1,126.22,8c0,.34,0,.7-.06,1.05,0,3.26-.26,6.55-.47,9.74l-.11,1.65c0,.18,0,.37,0,.57,0,.83,0,1.77-.69,2.21-.23.15-.45.31-.68.48A5.83,5.83,0,0,1,121.64,25a11.47,11.47,0,0,0-3.15,1c-.44.19-.9.38-1.36.55-.31.11-.5.25-.51.36s.1.29.45.52a3.57,3.57,0,0,0,3.36,0c.39-.14.78-.32,1.16-.5A12.18,12.18,0,0,1,123,26.4a1.34,1.34,0,0,1,1.84,1.6c-.11.6-.16,1.18-.23,1.8V30a3.38,3.38,0,0,1-2,2.9,19.22,19.22,0,0,1-2.55,1,15.22,15.22,0,0,0-3.28,1.46,2.85,2.85,0,0,0,1.11.22,19.86,19.86,0,0,0,4.07-.31c.72-.12,1.22-.14,1.5.15s.24.77.09,1.44l-.1.48a44.08,44.08,0,0,1-3,9.95,7.48,7.48,0,0,0-.45,1.43c-.05.23-.1.46-.17.68s-.15.54-.22.8a21.89,21.89,0,0,1-1.61,4.54c-.94,1.76-2,3.46-3.1,5.11-.58.9-1.18,1.84-1.75,2.76a2.48,2.48,0,0,1-.29.37c-.38.45-.4.56-.26.68s.31.06.76-.34l.29-.25c3.67-2.71,5.88-6.58,7.4-9.64l.18-.38a4,4,0,0,1,1.08-1.6,1.47,1.47,0,0,1,1.14-.44c.39.07.67.42,1,.92a3,3,0,0,1,.26,2,3.12,3.12,0,0,0,0,1.22,9.72,9.72,0,0,1,.09,3.68,9.14,9.14,0,0,0,.1,3.54,1.59,1.59,0,0,1-.21,1l0,.11a15.47,15.47,0,0,0-.9,5.33V69a1.26,1.26,0,0,0,.71,1.12.87.87,0,0,0,1,0,5.79,5.79,0,0,1,2.1-1,9.3,9.3,0,0,0,.89-.3A78.67,78.67,0,0,1,137.75,66l2.47-.64a2.68,2.68,0,0,1,2.09.33,3.13,3.13,0,0,1,1.4,2,8.56,8.56,0,0,1-1,6.18c-2.1,3.8-4.85,5.84-8.66,6.44a24.59,24.59,0,0,1-4.09.18c-.57,0-1.15,0-1.73,0H128c-.44,0-.44,0-.45.14a.47.47,0,0,0,.15.36.54.54,0,0,0,.42.14A4.3,4.3,0,0,1,128.72,81.06Zm1-13.44h-.28c-.54,0-1.05,0-1.28-.57a1.33,1.33,0,0,1,.2-1.24l.12-.22a2.85,2.85,0,0,1,2.31-1.45,7.84,7.84,0,0,0,.77-.2,1.26,1.26,0,0,1,1.05.2.76.76,0,0,1,.34.65c0,.13,0,.26,0,.39,0,.61,0,1.45-.84,1.83a8.14,8.14,0,0,1-2.38.62Zm2.14-3.24-.15,0a7.58,7.58,0,0,1-.82.21,2.43,2.43,0,0,0-2,1.18c0,.08-.08.16-.13.24-.18.35-.28.55-.17.82s.28.27.82.27h.27a8,8,0,0,0,2.22-.58c.53-.23.56-.67.53-1.36,0-.14,0-.29,0-.42a.33.33,0,0,0-.15-.25A.8.8,0,0,0,131.86,64.38Z"/><path class="cls-1" d="M83.18,73a2.54,2.54,0,0,0,.67-1.31A27.74,27.74,0,0,0,85,64.58c-.17-4.7.19-9.4,0-14.12a69.7,69.7,0,0,1,.38-7.58c.08-1.07.73-2.18.6-3.07a6.8,6.8,0,0,1,.83-3.75c.34-.87-.19-2-.38-2.89a49.44,49.44,0,0,1-.84-9.86c0-.93-.18-1.88-.24-2.83,0-.31-.1-.71.34-.84s.64.13.8.45c1.13,2.21,2.36,4.38,2.55,7,.14,1.91-.46,3.81,0,5.73a.49.49,0,0,1-.07.36c-1.09,1.29-1.06,2.88-1.35,4.43a26.89,26.89,0,0,0-.22,6.2c.07,1.54.15,3.08.15,4.62A32,32,0,0,0,88,53.75a1.44,1.44,0,0,1,0,.62c-.76,2.66,0,5.24.35,7.86a60.34,60.34,0,0,1,.68,6.7c.11,3,.36,5.91.73,8.85a7.62,7.62,0,0,1-.44,4.06,1.84,1.84,0,0,1-1.4,1.27,1.62,1.62,0,0,1-1.64-.91,25.94,25.94,0,0,1-3.09-7.44Z"/><path class="cls-1" d="M87.7,83.37a1.88,1.88,0,0,1-1.64-1,26.89,26.89,0,0,1-3.12-7.51V72.89l.07-.07a2.29,2.29,0,0,0,.61-1.2l.3-1.27a21.54,21.54,0,0,0,.86-5.76c-.08-2.34,0-4.73,0-7s.09-4.73,0-7.09a53.21,53.21,0,0,1,.26-6c0-.53.09-1.06.12-1.58a7.28,7.28,0,0,1,.33-1.47,3.89,3.89,0,0,0,.27-1.56,5.91,5.91,0,0,1,.64-3.34l.21-.53A3.28,3.28,0,0,0,86.43,34a7.86,7.86,0,0,1-.21-.8,49.7,49.7,0,0,1-.85-9.91,13.57,13.57,0,0,0-.13-1.68c0-.37-.08-.76-.1-1.13v-.09c0-.29-.07-.84.52-1a.9.9,0,0,1,1.09.57l.29.57A16.88,16.88,0,0,1,89.31,27a14.47,14.47,0,0,1-.08,2.47,10.52,10.52,0,0,0,0,3.22.72.72,0,0,1-.12.58A6,6,0,0,0,88,36.59c0,.34-.09.69-.15,1a25.69,25.69,0,0,0-.23,6.13c.08,1.52.15,3.08.15,4.64a33.51,33.51,0,0,0,.45,5.32,1.63,1.63,0,0,1,0,.73,13.8,13.8,0,0,0,.11,6.26c.09.49.17,1,.25,1.49a63.22,63.22,0,0,1,.68,6.73c.1,2.83.34,5.72.73,8.82a8,8,0,0,1-.46,4.2,2.05,2.05,0,0,1-1.6,1.42Zm-4.28-8.64a26.29,26.29,0,0,0,3.06,7.34,1.38,1.38,0,0,0,1.4.8c.52-.07.9-.42,1.2-1.12a7.33,7.33,0,0,0,.43-3.94c-.39-3.13-.63-6-.74-8.87a59.7,59.7,0,0,0-.67-6.67c-.07-.5-.16-1-.24-1.48a14.35,14.35,0,0,1-.11-6.49,1.27,1.27,0,0,0,0-.51,34.58,34.58,0,0,1-.45-5.4c0-1.55-.08-3.11-.15-4.61a26.72,26.72,0,0,1,.23-6.25c.06-.33.11-.68.16-1A6.46,6.46,0,0,1,88.76,33a.23.23,0,0,0,0-.15,11.21,11.21,0,0,1,0-3.37,14.7,14.7,0,0,0,.08-2.39,16.25,16.25,0,0,0-2.23-6.3l-.29-.57c-.21-.41-.42-.35-.51-.33s-.2.13-.17.5v.1c0,.36.06.74.1,1.1a14.4,14.4,0,0,1,.13,1.74,49.38,49.38,0,0,0,.84,9.81c0,.24.12.5.2.76a3.58,3.58,0,0,1,.17,2.27c-.07.18-.15.36-.22.53a5.5,5.5,0,0,0-.6,3.09A4.22,4.22,0,0,1,86,41.54a6.79,6.79,0,0,0-.3,1.36c0,.53-.09,1.06-.13,1.59a50,50,0,0,0-.25,6c.09,2.38,0,4.79,0,7.12s-.09,4.67,0,7a22,22,0,0,1-.88,5.89l-.3,1.26a2.73,2.73,0,0,1-.67,1.36Z"/><path class="cls-1" d="M154.88,45.3a3.21,3.21,0,0,1-4.16.15c-2.43-1.79-5.39-2.57-7.93-4.16-1.62-1-3.38-1.8-5.07-2.7-.23-.13-.62-.22-.52-.59s.45-.32.74-.32c1.45,0,2.93-.22,4.23.74a2.33,2.33,0,0,0,1.16.44A14.81,14.81,0,0,1,148,40.17c1.46.58,3,.86,4.46,1.47,1.22.51,2.24,1,2,2.57-.07.41.25.59.45.84Z"/><path class="cls-1" d="M152.67,46.39a3.51,3.51,0,0,1-2.09-.74,24,24,0,0,0-4.34-2.34,30,30,0,0,1-3.58-1.81c-1.07-.67-2.23-1.26-3.35-1.82-.56-.28-1.14-.57-1.7-.87l-.12-.06c-.21-.1-.66-.3-.53-.81s.65-.51.94-.51h.7a5.52,5.52,0,0,1,3.71.81,2.13,2.13,0,0,0,1,.38,14.63,14.63,0,0,1,4.57,1.27l.16.06c.68.27,1.4.48,2.1.68a24.38,24.38,0,0,1,2.37.79c1.08.46,2.42,1,2.13,2.84,0,.18.06.29.24.47a1.37,1.37,0,0,1,.16.18l.06.06v.47l-.1.07A4,4,0,0,1,152.67,46.39Zm-14.78-8.47c-.33,0-.43,0-.45.14s0,.11.25.24l.15.07c.56.3,1.14.59,1.7.87,1.12.57,2.29,1.16,3.38,1.84a29,29,0,0,0,3.52,1.78,24.37,24.37,0,0,1,4.43,2.39,3,3,0,0,0,3.77-.07v0l-.08-.08a1,1,0,0,1-.37-.89c.21-1.33-.56-1.76-1.84-2.3a21.8,21.8,0,0,0-2.32-.78,21.29,21.29,0,0,1-2.14-.69l-.16-.07a14.51,14.51,0,0,0-4.42-1.23,2.41,2.41,0,0,1-1.29-.48,5.19,5.19,0,0,0-3.41-.71h-.72Z"/><path class="cls-1" d="M105.88,34.93a1.67,1.67,0,0,1-.09,1.51c-.9,2.51-1.88,5-2.81,7.49a21.27,21.27,0,0,0-.84,10.5c.33,2.39.49,4.81.75,7.21.29,2.65.66,5.29.92,7.94.17,1.83.28,3.67.31,5.5a2.23,2.23,0,0,1-1.91,2.44c-1.25.23-2.6,1-3.65-.46-.14-.2-.41-.4-.2-.63s.43,0,.73-.06a2.7,2.7,0,0,1-2.38-1.53c-.41-1.16-1.21-2.06-1.68-3.15-.54-1.26-1-2.56-1.44-3.85-.12-.32-.27-.66.13-.87a.65.65,0,0,1,.9.19c.37.75,1.1.68,1.71.85,1.47.43,2.13-.1,1.8-1.59a3.59,3.59,0,0,1,.31-2.53,2.14,2.14,0,0,0,.23-1.47c-.47-1.76-.29-3.58-.59-5.35a2,2,0,0,0-2.28-1.65,1.47,1.47,0,0,1-1.61-.69c-.73-1.1-1.43-2-.9-3.6s.28-3.14.36-4.73c.07-1.32.21-2.64.36-3.95.24-2.08.32-4.37-1.53-6a.63.63,0,0,1-.09-.9.61.61,0,0,1,1-.19c.59.38,1.13.86,1.74,1.2,1,.55,1.74.15,1.81-1a7,7,0,0,0-.07-2.38c-.62-2.08-.06-4.14-.09-6.21,0-2.26.1-4.56-.67-6.76-.22-.64-.52-.83-1.21-.57a11.11,11.11,0,0,1-3.14.82c-.33,0-.75.44-1-.11s.1-.76.37-1.11c1.11-1.48,2.66-2.53,3.89-3.89A13,13,0,0,1,96.34,14c.44-.36,1-.81,1.43,0a.53.53,0,0,0,.54.25c2-.14,3,1.28,4.11,2.49.21.23.44.66.36.89a4.65,4.65,0,0,0,.13,2.72c.44,1.73-.48,3.35-.2,5.07.57,3.51-.4,7-.55,10.44,0,.75-.39,1.81.58,2.11s1.33-.63,1.8-1.26A7.29,7.29,0,0,1,105.88,34.93Z"/><path class="cls-1" d="M100.14,78.18a2.07,2.07,0,0,1-1.78-1l-.08-.1c-.11-.13-.35-.41-.19-.71a2.51,2.51,0,0,1-1.61-1.46,9.56,9.56,0,0,0-.89-1.71,10.93,10.93,0,0,1-.79-1.43c-.36-.84-.67-1.71-1-2.55-.15-.44-.31-.88-.47-1.31l0-.05c-.11-.29-.31-.83.27-1.13a1,1,0,0,1,.79-.07.71.71,0,0,1,.44.37c.23.47.61.54,1.09.62a3.57,3.57,0,0,1,.47.11c.66.19,1.13.17,1.36,0s.22-.84.13-1.27a3.85,3.85,0,0,1,.33-2.69,1.92,1.92,0,0,0,.21-1.3A15.13,15.13,0,0,1,98,59.37a19,19,0,0,0-.21-2.26,1.73,1.73,0,0,0-2-1.45,1.71,1.71,0,0,1-1.86-.8l-.11-.16c-.7-1.05-1.35-2-.81-3.65a10.41,10.41,0,0,0,.33-3.23c0-.47,0-1,0-1.43.06-1.32.21-2.63.36-4,.22-2,.31-4.22-1.46-5.81a.87.87,0,0,1-.14-1.2.89.89,0,0,1,.56-.45,1,1,0,0,1,.75.17l.74.52a10.26,10.26,0,0,0,1,.68,1.07,1.07,0,0,0,1,.13,1.05,1.05,0,0,0,.44-.91v-.2a6.06,6.06,0,0,0-.08-2.09,11.39,11.39,0,0,1-.2-4.22c0-.67.11-1.37.1-2.05,0-.37,0-.74,0-1.11a16.77,16.77,0,0,0-.64-5.58c-.1-.28-.2-.43-.32-.49a.86.86,0,0,0-.58.07,11.67,11.67,0,0,1-3.2.84.59.59,0,0,0-.23.07.68.68,0,0,1-1-.32,1.15,1.15,0,0,1,.31-1.27l.08-.1a17.58,17.58,0,0,1,2.25-2.31,22.62,22.62,0,0,0,1.66-1.59,12.18,12.18,0,0,1,1.37-1.35l0,0a1.45,1.45,0,0,1,1.08-.47,1,1,0,0,1,.69.57.33.33,0,0,0,.31.13c1.86-.14,2.91,1,3.93,2.15l.38.42a1.33,1.33,0,0,1,.41,1.13,4.5,4.5,0,0,0,.14,2.57,6.79,6.79,0,0,1-.06,2.81,7.11,7.11,0,0,0-.14,2.29,24,24,0,0,1-.19,6.88c-.15,1.19-.3,2.41-.35,3.61,0,.15,0,.31,0,.47-.09.75-.1,1.22.45,1.4s.88-.26,1.35-.92l.18-.26a5.72,5.72,0,0,0,.37-.58,4.21,4.21,0,0,1,1-1.28l.24-.18.13.26a1.77,1.77,0,0,1,0,1.57,1.21,1.21,0,0,1,0,.14c-.52,1.45-1.08,2.91-1.62,4.33-.4,1-.79,2.1-1.18,3.16a20.76,20.76,0,0,0-.84,10.38c.21,1.48.35,3,.49,4.47.08.9.17,1.83.27,2.74.11,1.08.25,2.17.38,3.23.18,1.54.38,3.14.53,4.72.18,1.85.29,3.7.32,5.52a2.47,2.47,0,0,1-2.12,2.68c-.23,0-.46.11-.71.17A5.56,5.56,0,0,1,100.14,78.18Zm-1.59-1.54a.67.67,0,0,0,.11.14l.1.14c.75,1,1.63.81,2.65.53.25-.06.5-.13.75-.17a2,2,0,0,0,1.71-2.19c0-1.81-.13-3.65-.31-5.48-.15-1.57-.35-3.17-.53-4.71-.13-1.06-.27-2.16-.38-3.23s-.19-1.85-.27-2.75c-.14-1.47-.28-3-.48-4.46a21.22,21.22,0,0,1,.85-10.61c.39-1.06.79-2.11,1.19-3.16.54-1.42,1.1-2.88,1.62-4.33a.88.88,0,0,1,0-.15,1.58,1.58,0,0,0,.16-.85,4.69,4.69,0,0,0-.63.9,5.16,5.16,0,0,1-.4.63l-.18.25c-.44.62-1,1.39-1.89,1.11s-.88-1.24-.8-1.93a3.44,3.44,0,0,0,0-.43c.06-1.22.21-2.46.36-3.65a23.77,23.77,0,0,0,.2-6.74,7.42,7.42,0,0,1,.13-2.45,6.17,6.17,0,0,0,.07-2.6,4.93,4.93,0,0,1-.13-2.86,1,1,0,0,0-.3-.64l-.38-.42c-1-1.09-1.92-2.11-3.53-2a.81.81,0,0,1-.78-.37c-.08-.14-.2-.31-.35-.33s-.44.18-.67.37l0,0a14.27,14.27,0,0,0-1.32,1.3c-.53.58-1.12,1.11-1.69,1.63a16.57,16.57,0,0,0-2.19,2.24l-.08.1c-.25.32-.37.5-.25.76s.08.17.38.06a1.06,1.06,0,0,1,.36-.09,11.28,11.28,0,0,0,3.07-.81,1.17,1.17,0,0,1,1-.05,1.25,1.25,0,0,1,.57.77A17,17,0,0,1,97,25.87c0,.37,0,.74,0,1.11a20.94,20.94,0,0,1-.1,2.1,10.75,10.75,0,0,0,.18,4,6.39,6.39,0,0,1,.1,2.27v.2a1.5,1.5,0,0,1-.69,1.3A1.53,1.53,0,0,1,95,36.76a10.73,10.73,0,0,1-1-.71c-.23-.17-.47-.35-.71-.5a.51.51,0,0,0-.37-.11.41.41,0,0,0-.24.22c-.18.3-.13.43,0,.58,2,1.75,1.86,4.13,1.62,6.24-.15,1.33-.29,2.63-.36,3.94,0,.46,0,.94,0,1.4a10.67,10.67,0,0,1-.35,3.39c-.47,1.38.07,2.19.75,3.21l.11.17a1.23,1.23,0,0,0,1.37.59A2.22,2.22,0,0,1,98.32,57a20.61,20.61,0,0,1,.21,2.32,15.49,15.49,0,0,0,.37,3A2.29,2.29,0,0,1,98.66,64a3.34,3.34,0,0,0-.29,2.36,1.77,1.77,0,0,1-.27,1.74,1.89,1.89,0,0,1-1.83.15c-.14,0-.28-.06-.43-.09a1.72,1.72,0,0,1-1.44-.89.28.28,0,0,0-.15-.13.58.58,0,0,0-.42,0c-.15.08-.17.13,0,.52v.05c.17.43.32.87.48,1.31.29.84.6,1.7,1,2.52A11.55,11.55,0,0,0,96,73a9.55,9.55,0,0,1,.93,1.8,2.5,2.5,0,0,0,2.18,1.37l1.11.14-1.07.34a1.5,1.5,0,0,1-.54,0Z"/><path class="cls-1" d="M112.78,80.68a13.7,13.7,0,0,1-5.16-1.5c-.26-.14-.85-.26-.71-.74s.56-.42.94-.5a84.89,84.89,0,0,1,8.57-1.71c4.43-.43,8.28-2.77,12.62-3.46,1.07-.17,2-.91,3.21-.93.36,0,.69,0,.91.23s.05.75-.14,1a5,5,0,0,1-3.24,2.21c-2.67.48-5.18,1.49-7.82,2.1a22,22,0,0,0-4.32,1.9A15.43,15.43,0,0,1,112.78,80.68Z"/><path class="cls-1" d="M112.78,80.93h0a13.88,13.88,0,0,1-5.25-1.53l-.16-.07c-.27-.12-.84-.36-.66-1s.65-.59,1-.66l.09,0c.92-.19,1.85-.4,2.75-.62a47.36,47.36,0,0,1,5.84-1.1,28,28,0,0,0,6.74-1.78A34.05,34.05,0,0,1,129,72.53a6.33,6.33,0,0,0,1.3-.42,5.32,5.32,0,0,1,1.95-.52h.11a1.09,1.09,0,0,1,1,.33,1.07,1.07,0,0,1-.14,1.33,5.13,5.13,0,0,1-3.4,2.31,40.42,40.42,0,0,0-4.39,1.15c-1.11.34-2.26.68-3.42,1A13.48,13.48,0,0,0,119,78.93c-.39.21-.8.42-1.21.61a15.59,15.59,0,0,1-4.93,1.39Zm19.74-8.85h-.26a5.05,5.05,0,0,0-1.78.47,6.21,6.21,0,0,1-1.4.46,32.42,32.42,0,0,0-5.78,1.65,29.61,29.61,0,0,1-6.86,1.81,43.58,43.58,0,0,0-5.78,1.08c-.9.22-1.84.44-2.76.62l-.09,0c-.37.07-.61.13-.66.31s0,.21.38.36l.2.1a13.72,13.72,0,0,0,5,1.47,15.53,15.53,0,0,0,4.75-1.34c.4-.19.81-.4,1.2-.6a13.29,13.29,0,0,1,3.17-1.32c1.14-.26,2.28-.61,3.39-.94a38.2,38.2,0,0,1,4.45-1.16,4.74,4.74,0,0,0,3.07-2.1c.24-.36.32-.55.16-.75A.52.52,0,0,0,132.52,72.08Z"/><path class="cls-1" d="M140.12,8.59A1.84,1.84,0,0,1,139,10.18a47.52,47.52,0,0,0-5.6,3.48c-.24.2-.53.34-.78.09s0-.58.22-.73a20.48,20.48,0,0,0,2.55-2.55,3.35,3.35,0,0,0,.79-4.18c-.15-.31-.52-.69-.13-1s.77-.11,1.16.16a8.38,8.38,0,0,0,1.6,1C139.83,6.85,139.93,7.77,140.12,8.59Z"/><path class="cls-1" d="M132.91,14.13a.63.63,0,0,1-.47-.21.61.61,0,0,1-.19-.49.9.9,0,0,1,.44-.61,9.53,9.53,0,0,0,1.65-1.59c.28-.31.56-.63.87-.93a3.1,3.1,0,0,0,.73-3.9,1.62,1.62,0,0,0-.1-.18c-.15-.27-.44-.75,0-1.11a1.22,1.22,0,0,1,1.45.16,8.38,8.38,0,0,0,1.55.93,2.46,2.46,0,0,1,1.41,2.07l.06.26v.06a2.08,2.08,0,0,1-1.26,1.81c-.55.33-1.13.65-1.68,1a27.4,27.4,0,0,0-3.88,2.48A1,1,0,0,1,132.91,14.13Zm3.54-8.7a.43.43,0,0,0-.27.08c-.09.07-.11.11.09.46a2.39,2.39,0,0,1,.12.22,3.58,3.58,0,0,1-.84,4.46c-.29.29-.57.6-.84.91A9.81,9.81,0,0,1,133,13.22a.52.52,0,0,0-.23.26.19.19,0,0,0,0,.1c.05.05.14.14.45-.11a27.23,27.23,0,0,1,3.95-2.53c.55-.31,1.12-.64,1.67-1s1-.65,1-1.36a1.89,1.89,0,0,0-.05-.23c-.16-.72-.31-1.39-1.12-1.73a9,9,0,0,1-1.65-1A1.16,1.16,0,0,0,136.45,5.43Z"/><path class="cls-1" d="M118.86,17.44c-1.45,0-2-.58-2-2a6.68,6.68,0,0,0-.25-1.72c0-.18-.17-.43.06-.56s.47,0,.68.16c1.25,1.09,2,1.05,3.09-.17.31-.33.69-.84,1.13-.6s.08.81,0,1.23a11.92,11.92,0,0,1-.86,2.61A1.77,1.77,0,0,1,118.86,17.44Z"/><path class="cls-1" d="M118.9,17.69h0c-1.61,0-2.29-.7-2.29-2.29a6.2,6.2,0,0,0-.25-1.66l0-.06a.61.61,0,0,1,.2-.78.81.81,0,0,1,1,.2c1.15,1,1.72,1,2.75-.15l.1-.11c.31-.34.77-.85,1.33-.55s.35.86.22,1.19a2.74,2.74,0,0,0-.1.31,11.58,11.58,0,0,1-.88,2.66A2,2,0,0,1,118.9,17.69Zm0-.49h0a1.52,1.52,0,0,0,1.53-.95,11.67,11.67,0,0,0,.85-2.55,1.85,1.85,0,0,1,.12-.4c.17-.42.15-.5,0-.58s-.39.06-.73.45l-.1.11c-1.22,1.32-2.09,1.36-3.45.19-.23-.2-.31-.18-.38-.14s0,.15,0,.21l0,.08a7,7,0,0,1,.26,1.78c0,1.31.47,1.78,1.81,1.8Z"/><path class="cls-1" d="M197,58.55c.38-.86.53-1.85,1.44-2.4.64-.38,1.21-.73,1.39.39a1,1,0,0,0,1.3.94c1.42-.36,2.88-.19,4.3-.67,4.33-1.45,8.75-2.66,13.14-3.88,2.45-.69,4.85-1.47,7.29-2.19,3.07-.91,4.9-3.19,6.93-5.32,4-4.19,5.35-9.42,5.93-15,.06-.59.2-1.18.27-1.78,0-.4,0-.86-.41-1s-.89-.06-.67-.69a.91.91,0,0,1,1-.58,7.5,7.5,0,0,1,1.06,0c.62.06,1.26-1,1.6-.39a4.14,4.14,0,0,1,.7,2.38,29.69,29.69,0,0,1-1.79,8.2c-1.05,2.87-2.91,5.35-4.4,8a2.09,2.09,0,0,1-1.43,1c-.88.17-.84,1.06-1.34,1.52-.08.07,0,.42.08.53.29.33.63.12,1,0a19.55,19.55,0,0,0,6.22-3.6,2.4,2.4,0,0,1,2.49-.58,24.94,24.94,0,0,0,2.71.22c.43.09,1,.23,1.09.7s-.24.91-.66,1.24c-1.58,1.28-3.6,1.43-5.41,2.09-1,.35-1.44.64-.87,1.64a2.9,2.9,0,0,1,.22,1.33,88.85,88.85,0,0,1-.06,11.88c-.4,5.34,0,10.67-.26,16a8.31,8.31,0,0,1-2.05,5.66,2.16,2.16,0,0,1-2.83.48,23.42,23.42,0,0,1-4.1-2.21,25.46,25.46,0,0,0-3.75-2c0-.48.31-.55.55-.54,2.3.11,4.05-1.38,5.93-2.27,1.73-.81,2.26-2.86,2.39-4.77a49.22,49.22,0,0,1,.32-5.56,1.44,1.44,0,0,0-.43-1.53c-.59-.41-.85.3-1.26.52-1.79.92-3.14,2.49-5,3.31s-3.57,2.16-5.49,3a3.56,3.56,0,0,1-4-.57,1.5,1.5,0,0,1-.67-1.71c.44-1.19-.07-1.22-1.09-1.33-2.74-.31-4.08-4-2.31-6.7a12.77,12.77,0,0,1,4.69-4.77c.13-.06.32-.1.39-.21,1.19-1.84,3.15-2.85,5-4.5a6.12,6.12,0,0,0-2.6.26c-5.87,2.27-11.62,4.89-17.74,6.52-1.15.31-2.28.76-3.46,1-1.92.38-3.76.27-5.25-1.23Zm32.21,8.62c1.35-.18,2.17-1.14,3.2-1.69,1.32-.71,2.52-1.52,1.79-3.41-.22-.57-.08-1.51.68-1.58s.62.7.55,1.29a.68.68,0,0,0,.74.77c.49,0,.35-.52.42-.84.4-1.87-.1-3.75.22-5.65.24-1.38.55-3.07-1.24-4-.18-.09-.26-.71-.15-1,.54-1.32-.24-1.32-1.14-1.21a6,6,0,0,0-1.47.27,20.82,20.82,0,0,0-11,9.71c-.18.33-.61.72-.26,1.07s.86,0,1.17-.29c2.37-1.92,5.18-3,7.86-4.39,1.31-.66,3.09.07,3,1.35a6,6,0,0,1-.58,3.06C231.78,62.78,230.56,64.93,229.25,67.17Zm-6.52,0a1.82,1.82,0,0,0,1-.25c2.11-1.3,4.1-2.74,5.22-5,.4-.82,1.5-1.88.88-2.47s-1.66.58-2.44,1A12.42,12.42,0,0,0,222,65.8C221.62,66.63,221.67,67.17,222.73,67.21Z"/><path class="cls-1" d="M236.18,85.26a3.19,3.19,0,0,1-1.32-.34l-.53-.25a20.58,20.58,0,0,1-3.62-2,13.64,13.64,0,0,0-2.51-1.37c-.4-.18-.81-.37-1.21-.57l-.15-.08,0-.16a.74.74,0,0,1,.81-.77A8.07,8.07,0,0,0,232,78.27c.48-.27,1-.55,1.49-.79,1.33-.63,2.09-2.16,2.25-4.57,0-.66,0-1.34.06-2a22.89,22.89,0,0,1,.25-3.59c.12-.63,0-1.06-.32-1.29s-.3-.09-.59.2a2.31,2.31,0,0,1-.42.34,14.86,14.86,0,0,0-2.25,1.53,13.58,13.58,0,0,1-2.76,1.78,23.45,23.45,0,0,0-2.78,1.54,26.21,26.21,0,0,1-2.7,1.5,3.8,3.8,0,0,1-4.3-.6,1.72,1.72,0,0,1-.75-2c.18-.48.16-.67.11-.75s-.49-.19-.94-.24h0a3.61,3.61,0,0,1-2.87-2.16,5.07,5.07,0,0,1,.37-4.91,13.13,13.13,0,0,1,4.79-4.86l.15-.06a.71.71,0,0,0,.15-.07,12.76,12.76,0,0,1,3.17-3c.46-.35.92-.7,1.38-1.09a4.56,4.56,0,0,0-1.86.26c-1.53.59-3.08,1.22-4.58,1.82a113.77,113.77,0,0,1-13.18,4.71c-.45.12-.9.26-1.34.4a21.07,21.07,0,0,1-2.14.6,5.7,5.7,0,0,1-5.47-1.31l-.08-.07V58.5l0,0c.09-.19.16-.39.23-.58a3.26,3.26,0,0,1,1.32-1.93c.45-.27.87-.53,1.25-.35s.43.42.5.92a1,1,0,0,0,.37.65.8.8,0,0,0,.63.08,13.67,13.67,0,0,1,2-.28,9.61,9.61,0,0,0,2.3-.38c3.93-1.32,8-2.45,11.92-3.55l1.23-.34c1.5-.42,3-.88,4.46-1.33l2.83-.86c2.64-.78,4.32-2.58,6.11-4.49.24-.25.47-.51.72-.76C237,40.75,238,35,238.51,30.44c0-.31.09-.61.14-.91s.1-.58.13-.87c.05-.48,0-.7-.26-.79a1.14,1.14,0,0,0-.22-.07.8.8,0,0,1-.58-.32.72.72,0,0,1,0-.61,1.16,1.16,0,0,1,1.19-.74l.33,0a4.81,4.81,0,0,1,.76,0,1.26,1.26,0,0,0,.63-.27,1.12,1.12,0,0,1,.8-.28.55.55,0,0,1,.36.28,4.29,4.29,0,0,1,.73,2.53,29.73,29.73,0,0,1-1.8,8.26,31.76,31.76,0,0,1-3,5.63c-.49.79-1,1.6-1.45,2.42a2.36,2.36,0,0,1-1.61,1.15c-.41.08-.55.34-.75.76a2.31,2.31,0,0,1-.42.66.52.52,0,0,0,.05.23c.12.13.23.11.55,0l.15-.05a19.18,19.18,0,0,0,6.15-3.56,2.69,2.69,0,0,1,2.73-.63,4.46,4.46,0,0,0,1.42.14,5.29,5.29,0,0,1,1.25.08c.36.07,1.11.23,1.29.88a1.45,1.45,0,0,1-.74,1.49,9.61,9.61,0,0,1-3.77,1.62c-.57.15-1.16.31-1.72.51s-.85.35-.93.56,0,.4.2.73a2.33,2.33,0,0,1,.24,1.16,2.44,2.44,0,0,0,0,.27,90.72,90.72,0,0,1-.06,11.92c-.23,3.05-.22,6.15-.2,9.15,0,2.24,0,4.56-.07,6.84A8.54,8.54,0,0,1,238,84.38,2.39,2.39,0,0,1,236.18,85.26Zm-8.8-4.89c.33.17.67.32,1,.48a13.57,13.57,0,0,1,2.6,1.43,19.46,19.46,0,0,0,3.53,1.94l.53.25a1.91,1.91,0,0,0,2.54-.43,8.13,8.13,0,0,0,2-5.5c.09-2.27.08-4.58.07-6.82,0-3,0-6.12.2-9.19a88,88,0,0,0,0-11.85c0-.09,0-.19,0-.29a1.76,1.76,0,0,0-.17-.92,1.35,1.35,0,0,1-.23-1.15c.16-.44.65-.65,1.23-.86s1.17-.36,1.75-.52a9.12,9.12,0,0,0,3.59-1.52c.45-.36.67-.62.57-1s-.42-.43-.9-.53a5.48,5.48,0,0,0-1.16-.07,4.72,4.72,0,0,1-1.57-.16,2.15,2.15,0,0,0-2.25.54,19.88,19.88,0,0,1-6.31,3.64l-.14,0a.88.88,0,0,1-1.09-.11.79.79,0,0,1-.17-.41.56.56,0,0,1,.1-.47,1.73,1.73,0,0,0,.35-.56,1.54,1.54,0,0,1,1.11-1,1.89,1.89,0,0,0,1.27-.91c.46-.83,1-1.65,1.46-2.44a30.78,30.78,0,0,0,2.91-5.54A29.19,29.19,0,0,0,242,28.33a3.92,3.92,0,0,0-.66-2.25s0,0-.05,0-.29.13-.42.21a1.5,1.5,0,0,1-.94.35,5.35,5.35,0,0,0-.69,0l-.34,0c-.43,0-.65.13-.75.41s0,.21,0,.21a.66.66,0,0,0,.26.08,2,2,0,0,1,.3.09c.67.27.59,1,.56,1.3a9.07,9.07,0,0,1-.14.91c0,.28-.1.58-.13.87-.91,8.77-3.68,12.68-6,15.1-.24.25-.48.5-.71.76-1.75,1.87-3.56,3.81-6.33,4.63l-2.83.85c-1.46.45-3,.92-4.46,1.33l-1.24.35c-3.92,1.09-8,2.22-11.89,3.53a9.89,9.89,0,0,1-2.42.41,11.75,11.75,0,0,0-1.9.27,1.24,1.24,0,0,1-1-.15,1.38,1.38,0,0,1-.58-1c-.07-.43-.18-.52-.23-.54s-.5.15-.78.32A2.92,2.92,0,0,0,197.5,58c-.06.18-.13.37-.21.56v.75c1.22,1.2,2.76,1.54,5,1.1a18.44,18.44,0,0,0,2.09-.58l1.36-.41a111.57,111.57,0,0,0,13.12-4.69c1.5-.6,3.06-1.23,4.59-1.82a6.24,6.24,0,0,1,2.7-.27l.61,0-.46.41c-.63.56-1.27,1-1.89,1.52a12.37,12.37,0,0,0-3.06,2.92.69.69,0,0,1-.38.26l-.11,0a12.32,12.32,0,0,0-4.59,4.69,4.59,4.59,0,0,0-.35,4.43,3.14,3.14,0,0,0,2.48,1.88h.05c.63.07,1.09.12,1.31.47s.14.62-.07,1.18,0,1,.59,1.43a3.3,3.3,0,0,0,3.79.54A25.24,25.24,0,0,0,226.67,71a23.65,23.65,0,0,1,2.84-1.57,13.46,13.46,0,0,0,2.66-1.72,15.13,15.13,0,0,1,2.33-1.58,1.56,1.56,0,0,0,.29-.25c.24-.24.64-.65,1.22-.25a1.59,1.59,0,0,1,.53,1.77,20.79,20.79,0,0,0-.24,3.51c0,.66,0,1.35-.07,2-.18,2.6-1,4.28-2.53,5-.49.23-1,.5-1.46.77a8.45,8.45,0,0,1-4.59,1.52C227.53,80.21,227.43,80.22,227.38,80.37Zm1.4-12.89.26-.43,1.13-2c.91-1.58,1.77-3.07,2.68-4.56a5.07,5.07,0,0,0,.53-2.56c0-.13,0-.26,0-.39a1.19,1.19,0,0,0-.59-1,2.17,2.17,0,0,0-2.08-.09l-1.83.89a29.18,29.18,0,0,0-6,3.47l-.09.08c-.31.26-.88.74-1.42.19s-.09-.88.1-1.16l.13-.2a21.15,21.15,0,0,1,11.13-9.82,5.11,5.11,0,0,1,1.28-.26l.25,0c.57-.07,1.16-.11,1.45.27s.2.68-.05,1.28a1.09,1.09,0,0,0,.05.68c1.91,1,1.6,2.84,1.37,4.19v.05a13.16,13.16,0,0,0-.09,2.66,12.13,12.13,0,0,1-.14,3,.75.75,0,0,0,0,.22c0,.27,0,.77-.62.81a.94.94,0,0,1-.76-.28,1,1,0,0,1-.25-.76c.08-.67,0-.89-.09-1a.25.25,0,0,0-.19-.05.52.52,0,0,0-.41.26,1.21,1.21,0,0,0-.06,1c.86,2.24-.87,3.16-1.9,3.71a10.13,10.13,0,0,0-.94.62,5.18,5.18,0,0,1-2.35,1.1Zm2.9-11.73a2.56,2.56,0,0,1,1.39.4,1.65,1.65,0,0,1,.82,1.46c0,.13,0,.26,0,.39a5.27,5.27,0,0,1-.6,2.79c-.9,1.49-1.76,3-2.68,4.56l-.84,1.45a5.71,5.71,0,0,0,1.59-.9,11.35,11.35,0,0,1,1-.64c1.3-.7,2.32-1.41,1.67-3.1a1.69,1.69,0,0,1,.1-1.43,1,1,0,0,1,.78-.49.74.74,0,0,1,.59.2,1.66,1.66,0,0,1,.23,1.37.5.5,0,0,0,.11.36.48.48,0,0,0,.37.13c.12,0,.15,0,.16-.34,0-.1,0-.2,0-.3a11.51,11.51,0,0,0,.14-2.88,13.49,13.49,0,0,1,.09-2.76V56c.23-1.33.49-2.85-1.12-3.67-.35-.18-.39-1-.27-1.3.23-.55.16-.74.12-.79s-.74-.11-1-.08l-.25,0a4.77,4.77,0,0,0-1.16.23A20.66,20.66,0,0,0,222.06,60l-.15.24c-.23.33-.26.43-.16.54s.33.13.75-.23l.1-.08a29.52,29.52,0,0,1,6.08-3.53L230.5,56A2.53,2.53,0,0,1,231.68,55.75Zm-8.89,11.71h-.06a1.21,1.21,0,0,1-1.08-.46,1.46,1.46,0,0,1,.13-1.3,12.8,12.8,0,0,1,5.51-5.41,7.46,7.46,0,0,0,.63-.44c.71-.52,1.51-1.11,2.09-.56s.05,1.4-.4,2.07c-.16.25-.32.48-.42.68-1.09,2.22-2.91,3.65-5.32,5.13A2,2,0,0,1,222.79,67.46Zm0-.49a1.67,1.67,0,0,0,.88-.22c2.33-1.43,4.09-2.82,5.13-4.92a5.86,5.86,0,0,1,.45-.74c.46-.68.76-1.18.48-1.44s-.91.19-1.47.6a6.43,6.43,0,0,1-.68.47,12.26,12.26,0,0,0-5.3,5.19c-.24.51-.22.74-.16.84S222.38,67,222.74,67Z"/><path class="cls-1" d="M264.59,13.45c1.75,1,2.78,2.72,4.35,3.91.82.62.08,1.76-.13,2.56-.57,2.16-.79,4.41-1.69,6.5-.81,1.87-1.47,3.8-2.32,5.67-1.17,2.58-2.15,5.26-3.38,7.83-.09.19,0,.47,0,.92,1.32-1,2.67-1.58,3.83-2.57a37.08,37.08,0,0,1,4.4-2.83,13.23,13.23,0,0,0,1.4-.88,4.66,4.66,0,0,1,6.54.74c1.87,2.41,2,4.49-.09,7.18-1.59,2.07-2.85,4.38-4.81,6.17-1.72,1.57-3.76,2.68-5.53,4.15a2.29,2.29,0,0,1-1.27.41c-2.15.27-2.69.9-2.74,3a31.22,31.22,0,0,1-2,9.38A22.22,22.22,0,0,1,257.76,72a25.07,25.07,0,0,1-6.63,6.23c-.26.16-.63.5-.95.14s.09-.64.26-.91c4.67-7.12,6.83-15.12,8.24-23.39a16.15,16.15,0,0,0,0-2.87c0-1.05-.58-1-1.28-.57a7.46,7.46,0,0,0-.79.7c-1.37,1.21-2.5.81-3.15-.91s-.65-3.32.93-4.87a13.94,13.94,0,0,0,2.83-5.1A105.54,105.54,0,0,0,262.15,25c.43-2.11,1-4.17,1.26-6.33.11-1.07.34-2-.44-3-.63-.78.42-1.45.41-2.23Zm7,24.35a14.5,14.5,0,0,0-2,.69c-2.65,1.32-4.59,3.57-6.9,5.33-.53.39-.49.92-.25,1.5a15.47,15.47,0,0,1,1,3.61c.06.43-.34,1,.12,1.26s1-.25,1.45-.58a25.53,25.53,0,0,0,5.4-6.31,18,18,0,0,0,2.15-4.6C272.81,38,272.6,37.74,271.62,37.8Z"/><path class="cls-1" d="M250.49,78.78a.66.66,0,0,1-.49-.23c-.4-.45-.07-.84.11-1.06l.13-.15c5.06-7.72,7-16.51,8.19-23.3a9.78,9.78,0,0,0,.06-2.1c0-.24,0-.48,0-.72s-.07-.56-.18-.61-.39,0-.72.24a3.6,3.6,0,0,0-.48.41l-.28.27a2.26,2.26,0,0,1-2,.71,2.45,2.45,0,0,1-1.54-1.72c-.81-2.15-.53-3.64,1-5.14a13.62,13.62,0,0,0,2.78-5v0A103.47,103.47,0,0,0,261.91,25c.13-.66.28-1.32.43-2a34.62,34.62,0,0,0,.82-4.34c0-.12,0-.24,0-.36a2.9,2.9,0,0,0-.43-2.44,1.33,1.33,0,0,1,.07-1.63,1.58,1.58,0,0,0,.28-.76V13.2h1.53l0,0a11.38,11.38,0,0,1,2.62,2.25,14,14,0,0,0,1.76,1.68c.78.59.43,1.52.15,2.26-.07.2-.15.39-.19.56-.2.74-.35,1.5-.5,2.23a21.85,21.85,0,0,1-1.21,4.31c-.36.84-.7,1.7-1,2.53-.41,1-.83,2.1-1.29,3.14s-1,2.28-1.46,3.41c-.61,1.46-1.23,3-1.93,4.43a.88.88,0,0,0,0,.36c.49-.35,1-.64,1.45-.93a13.58,13.58,0,0,0,2-1.38,21.52,21.52,0,0,1,3.07-2c.45-.26.92-.53,1.36-.81L270,35a6.66,6.66,0,0,0,.9-.59,4.82,4.82,0,0,1,3.57-1,4.89,4.89,0,0,1,3.32,1.82c2,2.56,2,4.8-.09,7.48-.5.65-1,1.35-1.44,2a23.7,23.7,0,0,1-3.4,4.2,27.88,27.88,0,0,1-3.05,2.32c-.83.58-1.69,1.18-2.48,1.83a2.63,2.63,0,0,1-1.4.47c-2,.24-2.47.76-2.53,2.76a30.88,30.88,0,0,1-2,9.45,23,23,0,0,1-3.5,6.5,25.06,25.06,0,0,1-6.7,6.28l-.11.07A1.28,1.28,0,0,1,250.49,78.78Zm7.7-28.69a.73.73,0,0,1,.33.08c.29.15.43.49.44,1l0,.71a10.92,10.92,0,0,1-.07,2.21c-2.22,13-5.58,19.38-8.27,23.48a2.33,2.33,0,0,1-.16.2c-.23.27-.21.31-.12.41s.18.11.51-.11L251,78a24.62,24.62,0,0,0,6.57-6.17A22.22,22.22,0,0,0,261,65.51a30.25,30.25,0,0,0,1.94-9.31c.06-2.23.72-3,3-3.23a2.14,2.14,0,0,0,1.14-.36c.81-.67,1.68-1.27,2.52-1.85a29.74,29.74,0,0,0,3-2.29,23.32,23.32,0,0,0,3.33-4.11c.46-.67.94-1.37,1.45-2,1.93-2.5,1.95-4.5.09-6.87a4.41,4.41,0,0,0-3-1.64,4.28,4.28,0,0,0-3.2.93,7.3,7.3,0,0,1-1,.63l-.46.27c-.45.28-.91.56-1.37.82a20.27,20.27,0,0,0-3,2,14.69,14.69,0,0,1-2.08,1.42A19.56,19.56,0,0,0,261.6,41l-.37.28,0-.46a2.35,2.35,0,0,0,0-.4,1.05,1.05,0,0,1,0-.64c.69-1.44,1.31-2.94,1.91-4.4.47-1.13.95-2.29,1.47-3.43s.88-2.08,1.28-3.11c.33-.83.67-1.7,1-2.54a21.29,21.29,0,0,0,1.17-4.21c.16-.75.31-1.52.51-2.26a5.53,5.53,0,0,1,.21-.61c.3-.8.46-1.35,0-1.69A15,15,0,0,1,267,15.82a10.68,10.68,0,0,0-2.44-2.13h-.93a2.59,2.59,0,0,1-.31.75c-.26.47-.39.75-.12,1.09a3.38,3.38,0,0,1,.53,2.81c0,.12,0,.24-.05.36a37.15,37.15,0,0,1-.83,4.4c-.14.64-.3,1.3-.43,1.95a105.34,105.34,0,0,1-4.89,15.46v0a14.09,14.09,0,0,1-2.89,5.2c-1.37,1.35-1.61,2.64-.87,4.61.31.8.72,1.29,1.2,1.41a1.82,1.82,0,0,0,1.56-.6l.26-.25a3.64,3.64,0,0,1,.55-.48A1.69,1.69,0,0,1,258.19,50.09Zm5.72.42a1,1,0,0,1-.42-.1c-.46-.23-.37-.71-.3-1a1.7,1.7,0,0,0,.05-.42,15.6,15.6,0,0,0-1-3.55,1.4,1.4,0,0,1,.33-1.79c.79-.6,1.55-1.27,2.29-1.93a22.33,22.33,0,0,1,4.65-3.42,8.89,8.89,0,0,1,1.55-.56l.47-.14h.06c.63,0,1,0,1.18.29a1,1,0,0,1,.06.92,18.66,18.66,0,0,1-2.18,4.66,25.41,25.41,0,0,1-5.46,6.37l-.16.13A1.85,1.85,0,0,1,263.91,50.51Zm7.75-12.46-.45.13a9.06,9.06,0,0,0-1.47.53,21.5,21.5,0,0,0-4.54,3.35c-.75.66-1.52,1.34-2.33,1.95-.36.28-.4.63-.16,1.21a15.48,15.48,0,0,1,1,3.67,1.67,1.67,0,0,1-.05.59c-.07.35-.06.44,0,.49.31.15.6-.06,1-.41l.16-.14a24.8,24.8,0,0,0,5.35-6.25,17.86,17.86,0,0,0,2.12-4.54c.1-.3.07-.42,0-.47S272.2,38,271.66,38.05Z"/><path class="cls-1" d="M283.68,78.53a5.78,5.78,0,0,1-6.68-.88c-1.79-1.54-2.65-3.72-4.14-5.47-2.06-2.4-4.41-4.53-6.53-6.87-.31-.35-.77-.62-.45-1.11s.72,0,1.07.08a51.55,51.55,0,0,1,8.48,3.39c4.1,2.07,6.46,5.39,8.25,9.34Z"/><path class="cls-1" d="M281,79.47a6.28,6.28,0,0,1-4.14-1.64,14.2,14.2,0,0,1-2.58-3.25,21.65,21.65,0,0,0-1.59-2.24c-1.15-1.34-2.41-2.61-3.63-3.85-1-1-2-2-2.89-3-.06-.06-.12-.11-.17-.17-.27-.26-.68-.67-.31-1.23s.85-.28,1.11-.14a1.33,1.33,0,0,0,.24.12,52.11,52.11,0,0,1,8.53,3.4c3.65,1.84,6.22,4.76,8.35,9.46l0,0v1.71l-.13.07A5.86,5.86,0,0,1,281,79.47ZM266.22,64.24c-.07,0-.1,0-.14.1s-.07.3.24.61l.19.19c.93,1,1.92,2,2.88,3,1.23,1.24,2.5,2.52,3.65,3.87a20.8,20.8,0,0,1,1.63,2.29,14.23,14.23,0,0,0,2.49,3.15,5.53,5.53,0,0,0,6.27.92V77.07c-2.07-4.57-4.58-7.4-8.11-9.18a51.94,51.94,0,0,0-8.44-3.37,2.41,2.41,0,0,1-.33-.15A.9.9,0,0,0,266.22,64.24Z"/><path class="cls-1" d="M229.62,42.24l3.4-2.41c.35-.24.67-.87,1.11-.54s.25,1.09-.09,1.49a33,33,0,0,1-4.38,4.77,20.21,20.21,0,0,1-5.34,2.76,2.34,2.34,0,0,1-3.16-1.13,1.87,1.87,0,0,0-.73-.72c-1.57-1-2-2-1.47-3.81.57-2,1-4.07,1.76-6a7.53,7.53,0,0,1,2-3.14c.24-.21.32-.76.78-.55s.35.74.23,1.08c-.32,1-.74,1.87-1.1,2.8-.12.32-.18.67-.28,1a2.35,2.35,0,0,0,2.35-.72c1.84-1.91,4.35-2.8,6.41-4.37a4.21,4.21,0,0,1,.64-.39,2.38,2.38,0,0,1,2.58.11c.81.63.24,1.47-.06,2.06a22.79,22.79,0,0,1-4.22,6.34,6.09,6.09,0,0,0-.74,1.06Zm-6.38,1.13c-.08,1.07.1,1.48.8,1.1a12.65,12.65,0,0,0,6.15-7.76.72.72,0,0,0-.34-.91c-.39-.22-.68,0-.91.29a12.46,12.46,0,0,1-2.31,1.65A8.54,8.54,0,0,0,223.24,43.37Z"/><path class="cls-1" d="M223.22,48.77a2.54,2.54,0,0,1-2.28-1.48,1.68,1.68,0,0,0-.64-.63,3.14,3.14,0,0,1-1.58-4.08c.17-.6.33-1.21.49-1.81a37.35,37.35,0,0,1,1.28-4.24,8,8,0,0,1,2.06-3.24.86.86,0,0,0,.15-.2c.13-.2.39-.62.9-.38.27.13.67.48.37,1.38-.2.59-.44,1.18-.68,1.75-.15.35-.29.7-.43,1.06a4,4,0,0,0-.18.66l0,.11a2.13,2.13,0,0,0,1.87-.7,17.29,17.29,0,0,1,3.85-2.75A24.05,24.05,0,0,0,231,32.58a3.54,3.54,0,0,1,.69-.42,2.55,2.55,0,0,1,2.83.14c.89.68.4,1.62.1,2.18l-.09.18a22.81,22.81,0,0,1-4.27,6.4,3.1,3.1,0,0,0-.48.67l-.11.18h0l3.24-2.29a2.4,2.4,0,0,0,.25-.23c.24-.25.65-.68,1.15-.31a1,1,0,0,1,.39.67,1.62,1.62,0,0,1-.44,1.18c-.33.39-.65.77-1,1.16a23.78,23.78,0,0,1-3.46,3.64,20.64,20.64,0,0,1-5.4,2.8A3.26,3.26,0,0,1,223.22,48.77Zm.09-15.64s-.09,0-.19.22a1.23,1.23,0,0,1-.24.31A7.39,7.39,0,0,0,221,36.71a37.15,37.15,0,0,0-1.27,4.18c-.15.6-.31,1.22-.48,1.83-.48,1.69-.15,2.55,1.36,3.53a2.18,2.18,0,0,1,.82.81,2.1,2.1,0,0,0,2.86,1,19.85,19.85,0,0,0,5.26-2.73,21.88,21.88,0,0,0,3.38-3.56l1-1.17a1.19,1.19,0,0,0,.33-.8.45.45,0,0,0-.2-.33c-.11-.09-.19-.07-.5.25a2.27,2.27,0,0,1-.32.3l-3.56,2.52L229,42l.12-.17c.08-.11.15-.23.22-.34a3.53,3.53,0,0,1,.56-.77,22.57,22.57,0,0,0,4.17-6.27,1.74,1.74,0,0,1,.1-.19c.36-.68.55-1.16,0-1.56a2.15,2.15,0,0,0-2.32-.09,3.73,3.73,0,0,0-.6.37,26.13,26.13,0,0,1-2.64,1.68,16.82,16.82,0,0,0-3.75,2.66,2.53,2.53,0,0,1-2.58.78l-.24-.06.06-.24c0-.12.06-.23.09-.34a5.59,5.59,0,0,1,.2-.73c.14-.36.29-.71.44-1.07.23-.56.47-1.14.66-1.72s0-.73-.11-.77A.13.13,0,0,0,223.31,33.13Zm.31,11.73a.59.59,0,0,1-.31-.09c-.29-.18-.38-.61-.31-1.42v0a8.73,8.73,0,0,1,3.49-5.78c.26-.19.54-.36.81-.53a5.83,5.83,0,0,0,1.45-1.08.94.94,0,0,1,1.68.85,13,13,0,0,1-6.27,7.91A1.18,1.18,0,0,1,223.62,44.86Zm-.13-1.46c-.07.81.06.94.09,1s.13,0,.35-.11a12.51,12.51,0,0,0,6-7.61.49.49,0,0,0-.22-.63c-.18-.09-.33-.08-.62.24a6.28,6.28,0,0,1-1.56,1.19c-.27.16-.54.32-.79.5A8.29,8.29,0,0,0,223.49,43.4Z"/><path class="cls-1" d="M224.2,24.94a33.76,33.76,0,0,1,4.85-1.8,40.9,40.9,0,0,0,9.25-3.53c1.5-.73,2.73-.23,4,.37.56.27,1.14.83.76,1.6a2.6,2.6,0,0,1-2,1.58c-.43.05-.84-.1-1.25.23-2.53,2-5.61,2.53-8.63,2.69A16.24,16.24,0,0,1,224.2,24.94Z"/><path class="cls-1" d="M230.23,26.35a16.37,16.37,0,0,1-6.12-1.18l-.59-.24.59-.22c.5-.19,1-.41,1.49-.61a19.08,19.08,0,0,1,3.4-1.21,40,40,0,0,0,9.19-3.5c1.58-.77,2.88-.26,4.19.37a1.42,1.42,0,0,1,.88,1.93A2.84,2.84,0,0,1,241,23.4a2.88,2.88,0,0,1-.41,0,1,1,0,0,0-.72.16c-2.75,2.16-6.13,2.6-8.77,2.75C230.83,26.35,230.53,26.35,230.23,26.35Zm-5.35-1.42a16,16,0,0,0,6.23.91c2.56-.14,5.84-.57,8.48-2.64a1.49,1.49,0,0,1,1-.28,1.9,1.9,0,0,0,.34,0,2.34,2.34,0,0,0,1.84-1.44c.34-.69-.34-1.11-.65-1.26-1.24-.61-2.37-1.05-3.75-.38a41.62,41.62,0,0,1-9.31,3.55,18.11,18.11,0,0,0-3.31,1.17Z"/><path class="cls-1" d="M185,95.61c-3.54-1.33-5.84-3.75-7.74-7.16a17.89,17.89,0,0,1-2.09-8.5c-.07-2,.86-3.8,1.63-5.6a32.35,32.35,0,0,0,1.57-6.12,4.72,4.72,0,0,0-1.42-4.1,17.44,17.44,0,0,0-3.33-3,9.75,9.75,0,0,1-4.29-6.64v-.93c.92-.72,1.66-.51,2.07.53,1.42,3.53,4.47,4.78,7.75,5.6,3.59.9,5.76,3.47,5.29,6.76a9.78,9.78,0,0,1-1.73,4.38,29.48,29.48,0,0,0-3.5,7.48,5.92,5.92,0,0,0,.39,4.46,20.75,20.75,0,0,0,6.79,7.83,4.91,4.91,0,0,1,2,3.11c.35,1.59-.26,2.19-1.84,1.88A7.92,7.92,0,0,0,185,95.61Z"/><path class="cls-1" d="M187.28,96a3.72,3.72,0,0,1-.77-.09,4.06,4.06,0,0,0-1,0h-.58c-3.35-1.26-5.78-3.5-7.88-7.27A18.32,18.32,0,0,1,174.94,80a12,12,0,0,1,1.37-5.06l.28-.64a25.36,25.36,0,0,0,1.32-4.86l.24-1.22a4.42,4.42,0,0,0-1.37-3.89,17,17,0,0,0-3.27-2.92,10,10,0,0,1-4.4-6.81v-1.1l.09-.07a1.65,1.65,0,0,1,1.44-.43,1.59,1.59,0,0,1,1,1.07c1.4,3.48,4.47,4.67,7.58,5.45,3.79,1,6,3.71,5.48,7a10.18,10.18,0,0,1-1.78,4.5,26.74,26.74,0,0,0-3.26,6.85l-.21.57a5.67,5.67,0,0,0,.38,4.27,20.59,20.59,0,0,0,6.72,7.73,5.21,5.21,0,0,1,2.08,3.25,2,2,0,0,1-.26,1.88A1.45,1.45,0,0,1,187.28,96ZM186,95.33a3.08,3.08,0,0,1,.61,0c.71.14,1.19.08,1.43-.16s.28-.73.13-1.43a4.74,4.74,0,0,0-1.89-3,20.89,20.89,0,0,1-6.87-7.92,6.12,6.12,0,0,1-.4-4.65l.21-.57a26.71,26.71,0,0,1,3.33-7,9.7,9.7,0,0,0,1.68-4.28c.43-3-1.58-5.6-5.11-6.48-3.24-.81-6.43-2.06-7.91-5.75a1.3,1.3,0,0,0-.69-.78,1.17,1.17,0,0,0-.91.28v.79A9.54,9.54,0,0,0,173.78,61a17.08,17.08,0,0,1,3.37,3,4.91,4.91,0,0,1,1.48,4.31l-.24,1.22a25.27,25.27,0,0,1-1.35,5c-.09.22-.18.43-.28.65a11.67,11.67,0,0,0-1.33,4.84,17.87,17.87,0,0,0,2.06,8.39c2,3.65,4.37,5.82,7.58,7l.43,0Z"/><path class="cls-1" d="M170.58,28.37a28.23,28.23,0,0,0,7,2.68,11,11,0,0,1,1.61.47c1.73.74,2.05,2,.68,3.32-2,1.86-3.21,4.38-5.16,6.29a8.33,8.33,0,0,0-1,2c-.19.36-.48.77-.93.68s-.38-.66-.41-1a1.59,1.59,0,0,1,.26-1.18c1.16-1.38,1.37-3.19,2.14-4.74.46-.91.19-1.36-.64-1.83a8.69,8.69,0,0,1-4.3-5.19,2.61,2.61,0,0,1-.13-1.51Z"/><path class="cls-1" d="M172.87,44.12l-.18,0c-.64-.13-.62-.7-.6-1v-.23a1.77,1.77,0,0,1,.31-1.36,8.7,8.7,0,0,0,1.39-2.85,14.3,14.3,0,0,1,.72-1.84c.37-.73.25-1-.54-1.5A9,9,0,0,1,169.55,30a2.82,2.82,0,0,1-.13-1.65l.06-.17h1.17l0,0a28.25,28.25,0,0,0,6.91,2.65l.3.08a8.32,8.32,0,0,1,1.35.4A2.45,2.45,0,0,1,180.91,33a2.26,2.26,0,0,1-.9,2,20.8,20.8,0,0,0-2.66,3.21,23.46,23.46,0,0,1-2.5,3.07,3.23,3.23,0,0,0-.61,1.17,7.64,7.64,0,0,1-.35.83C173.77,43.51,173.45,44.12,172.87,44.12Zm-3-15.5a2.69,2.69,0,0,0,.16,1.19,8.49,8.49,0,0,0,4.19,5.05c.85.48,1.3,1,.74,2.15a15.3,15.3,0,0,0-.7,1.78,9,9,0,0,1-1.47,3,1.33,1.33,0,0,0-.2,1,2.61,2.61,0,0,1,0,.28c0,.4,0,.49.2.53s.38,0,.67-.55a6.6,6.6,0,0,0,.33-.77A3.59,3.59,0,0,1,174.5,41a22.07,22.07,0,0,0,2.45-3,21.63,21.63,0,0,1,2.72-3.28,1.88,1.88,0,0,0,.76-1.59c-.09-.52-.58-1-1.37-1.32a8.9,8.9,0,0,0-1.27-.39l-.3-.07a28.74,28.74,0,0,1-7-2.67Z"/><path class="cls-1" d="M.25,80.18a3,3,0,0,1,1.46-1.81c1.28-.83,1.94-2.29,2.92-3.44,1.71-2,2.85-4.41,4.42-6.53a95.64,95.64,0,0,0,6.41-10.22A26.8,26.8,0,0,1,17.25,55a1.21,1.21,0,0,0-.11-1.84c-.77-.71-.39-1.25.43-1.32,1.74-.14,2.48-1.38,3.24-2.64a12.16,12.16,0,0,0,1.82-3.7c-2.63,2-5.43,3.79-7.94,6-1.41,1.23-2.92,2.46-4.47,3.56a7.22,7.22,0,0,1-6.48.68c-.2-.06-.5-.17-.47-.49s.27-.27.45-.34c4.38-1.65,8.07-4.48,11.93-7,2.29-1.49,4.45-3.21,6.7-4.75a28.8,28.8,0,0,0,5.67-5c.69-.79,2.66-.36,3.58.81.63.81.26,1.47-.44,2.21C29.5,42.93,28,44.8,26.42,46.65c-.44.53-.72,1.15.43,1.15.52,0,.78.37,1.08.73s.87,1,1.31,1.46a1,1,0,0,0,1.6.15,3.28,3.28,0,0,1,2.35-.88c1.12.11,1.47.66.89,1.64a4.51,4.51,0,0,1-1.77,1.67,4.21,4.21,0,0,0-2.39,3.94c0,.85.07,1.48,1.16,1.4.47,0,1.06-.09,1.22.55a1.35,1.35,0,0,1-.56,1.29,2.49,2.49,0,0,1-.8.57c-1.17.47-1.35,1.37-1.28,2.49s.48,1.15,1.25.68c.51-.3,1-.71,1.48,0s.18,1.13-.29,1.64a7.92,7.92,0,0,1-1.82,1.24c-1.55,1-.77,2.47-.78,3.71,0,1,1.09,1.2,1.92,1.39.64.14,1.3.16,1.94.29s1.34.43,1.47,1.26-.06,1.62-1,1.83c-3.07.68-5.81,2.32-8.9,3-1.51.32-2.89,1.09-4.46,1.3-1,.13-.9,1.15-.86,1.91a47.67,47.67,0,0,1-.19,6.21,14.67,14.67,0,0,0-.08,2.09,14.3,14.3,0,0,1-.88,5.53c-.3.93-1,1.32-1.68,1.87h-1a3.47,3.47,0,0,1-1-2.3c.19-2.21-.29-4.37.33-6.65,1.24-4.54,1.2-9.3,1.61-14,.21-2.32.55-4.63.66-7s.56-4.61.24-7.06a54.75,54.75,0,0,0-4.69,7.1c-2.25,3.87-4.59,7.7-7,11.48C5,79.85,4.18,81.46,2.38,82.3s-1.7.89-2.13-.88ZM25.88,70.06c-.45.2-.72.84-1.2.49s0-.63.16-.94c.23-.67-.16-.67-.65-.56s-1.22.39-1.4-.2.69-.66,1.08-1l.11-.06c2.55-1.3,2.64-1.52,2.36-4.36-.07-.66-.3-.79-.84-.62s-1.23.39-1.45-.09.51-.91.89-1.3a2.83,2.83,0,0,1,.61-.41,1.58,1.58,0,0,0,.82-1.95,9.9,9.9,0,0,1-.08-1.23c0-.35.17-.8-.25-1a.93.93,0,0,0-1.12.27c-.78,1.23-2.07,1.16-3.24,1.43a1.31,1.31,0,0,0-1.19,1.27c-.32,2.27-.27,4.56-.39,6.84s-.19,4.73-.48,7.09c0,.31-.2.71.18.88s.48-.23.69-.41a1.35,1.35,0,0,1,1.05-.54c.4,0,.81.07.55.64s0,.83.65.83a5.27,5.27,0,0,0,3.08-1.07,1.05,1.05,0,0,0,.48-.93A6.64,6.64,0,0,0,25.88,70.06Zm.41-17.66c-.08-.81-.17-1.62-.24-2.43,0-.47.11-1-.5-1.26s-.89.3-1.14.67A29.12,29.12,0,0,1,21,54.12a2.78,2.78,0,0,0-.53,2.17c.08,1.05.44,1,1.1.53A21.3,21.3,0,0,1,25,54.5,1.83,1.83,0,0,0,26.29,52.4Z"/><path class="cls-1" d="M16.86,97h-1.2l-.07-.09a3.61,3.61,0,0,1-1.09-2.47,22.64,22.64,0,0,0,0-2.47,14,14,0,0,1,.31-4.23,51.82,51.82,0,0,0,1.35-10.28c.07-1.2.15-2.43.26-3.64.08-.87.17-1.75.27-2.6.15-1.42.32-2.89.38-4.34,0-.71.1-1.44.17-2.14a24.37,24.37,0,0,0,.14-4.29A57.1,57.1,0,0,0,13.11,67c-2.18,3.73-4.53,7.59-7,11.49-.12.18-.23.37-.35.57a7.89,7.89,0,0,1-3.28,3.45l-.21.1c-.81.38-1.21.57-1.57.41s-.49-.65-.7-1.56V80.12a3.21,3.21,0,0,1,1.57-2A7.33,7.33,0,0,0,3.52,76c.29-.42.59-.85.92-1.24A28,28,0,0,0,7,71.09c.58-.94,1.19-1.92,1.87-2.84a94.87,94.87,0,0,0,6.4-10.19c.19-.34.37-.69.54-1a14.29,14.29,0,0,1,1.26-2.16c.45-.61.43-1-.08-1.51s-.54-.88-.46-1.12a1.09,1.09,0,0,1,1-.62c1.61-.13,2.31-1.3,3.05-2.53.13-.22.26-.44.4-.65a11.32,11.32,0,0,0,1.2-2.28c-.85.63-1.7,1.25-2.54,1.85-1.61,1.15-3.28,2.35-4.81,3.68a56.53,56.53,0,0,1-4.49,3.58c-1.79,1.27-4,1.51-6.69.72-.17,0-.69-.21-.64-.75a.6.6,0,0,1,.51-.52l.1,0a47,47,0,0,0,9.45-5.35c.79-.54,1.61-1.09,2.43-1.62,1.31-.85,2.59-1.79,3.84-2.7.92-.68,1.89-1.38,2.85-2a29,29,0,0,0,5.63-5,1.64,1.64,0,0,1,1.33-.49,3.59,3.59,0,0,1,2.62,1.31c.78,1,.21,1.83-.45,2.53-1.45,1.53-2.83,3.18-4.17,4.78l-.56.67c-.38.47-.32.61-.32.62s.07.13.56.13a1.56,1.56,0,0,1,1.23.76l0,0c.25.31.52.61.79.9s.35.37.51.56a.79.79,0,0,0,1.27.11A3.51,3.51,0,0,1,33.22,49a1.46,1.46,0,0,1,1.28.65A1.4,1.4,0,0,1,34.29,51a4.79,4.79,0,0,1-1.86,1.77,3.94,3.94,0,0,0-2.26,3.72c0,.5,0,.84.2,1a.93.93,0,0,0,.69.15h0c.46,0,1.23-.09,1.44.73a1.59,1.59,0,0,1-.63,1.53,2.75,2.75,0,0,1-.88.61c-1,.42-1.19,1.2-1.12,2.26,0,.37.1.62.22.68s.24.06.66-.2l.14-.09c.43-.27,1.09-.68,1.66.14a1.44,1.44,0,0,1-.31,2,5.13,5.13,0,0,1-1.34,1c-.18.1-.36.2-.53.31-1,.65-.9,1.51-.76,2.5a6.78,6.78,0,0,1,.1,1c0,.7.65.91,1.58,1.11l.15,0c.33.07.66.11,1,.15s.6.08.91.14A1.79,1.79,0,0,1,35.07,73c.18,1.15-.24,1.9-1.2,2.11a29.22,29.22,0,0,0-4.32,1.45A27.33,27.33,0,0,1,25,78a15.51,15.51,0,0,0-1.91.59,12.65,12.65,0,0,1-2.57.71c-.67.09-.69.72-.65,1.59V81a50.08,50.08,0,0,1-.19,6.24l0,.38a9.33,9.33,0,0,0-.05,1.67,14.62,14.62,0,0,1-.9,5.62,3.37,3.37,0,0,1-1.35,1.66l-.4.32Zm-1-.49h.78c.11-.1.23-.19.35-.28a3,3,0,0,0,1.18-1.42,13.93,13.93,0,0,0,.88-5.43,10.33,10.33,0,0,1,.05-1.76l0-.37A49.25,49.25,0,0,0,19.35,81V81c0-.77-.1-1.94,1.08-2.1a12.11,12.11,0,0,0,2.46-.68,14.65,14.65,0,0,1,2-.61,28.94,28.94,0,0,0,4.5-1.49,29.15,29.15,0,0,1,4.4-1.48c.44-.1,1-.37.82-1.55-.1-.59-.47-.9-1.28-1.06-.28-.06-.58-.09-.87-.13a9.87,9.87,0,0,1-1.07-.16l-.15,0c-.83-.19-2-.45-2-1.6a5.21,5.21,0,0,0-.09-.93c-.14-1-.31-2.17,1-3,.18-.11.36-.22.55-.32A4.91,4.91,0,0,0,31.92,65c.5-.56.57-.9.26-1.34s-.47-.32-1,0l-.15.1a1.23,1.23,0,0,1-1.14.21c-.39-.21-.46-.72-.49-1.09a2.4,2.4,0,0,1,1.44-2.74,2.54,2.54,0,0,0,.72-.51c.42-.41.57-.73.49-1.06s-.37-.4-.93-.36h0A1.36,1.36,0,0,1,30,57.88a1.86,1.86,0,0,1-.36-1.38,4.44,4.44,0,0,1,2.52-4.15,4.17,4.17,0,0,0,1.67-1.58c.16-.27.33-.63.2-.88s-.41-.33-.89-.38a3.06,3.06,0,0,0-2.19.82,1.25,1.25,0,0,1-1.93-.18l-.5-.55c-.27-.29-.56-.6-.81-.92l0,0c-.29-.36-.48-.58-.84-.58-.2,0-.82,0-1-.41s0-.67.4-1.14l.55-.67C28.13,44.22,29.52,42.56,31,41c.77-.81.88-1.3.43-1.89A3.17,3.17,0,0,0,29.16,38a1.25,1.25,0,0,0-.95.32,28.71,28.71,0,0,1-5.72,5.05c-1,.65-1.92,1.35-2.84,2-1.25.91-2.54,1.86-3.86,2.71-.82.53-1.64,1.08-2.43,1.62a47.06,47.06,0,0,1-9.55,5.4l-.13,0c-.16,0-.16.06-.16.09s0,.15.29.23c2.5.76,4.61.54,6.27-.64,1.4-1,2.89-2.19,4.44-3.55s3.23-2.55,4.85-3.71c1-.74,2.09-1.5,3.11-2.29L23,44.9l-.13.66a9.55,9.55,0,0,1-1.45,3.13c-.14.21-.27.43-.4.64-.77,1.29-1.56,2.62-3.43,2.77-.32,0-.56.14-.61.29s.07.36.33.6a1.46,1.46,0,0,1,.13,2.17,14.44,14.44,0,0,0-1.21,2.08c-.17.35-.36.71-.55,1.06A94.38,94.38,0,0,1,9.24,68.54c-.66.9-1.26,1.87-1.84,2.81a29.29,29.29,0,0,1-2.58,3.74c-.32.37-.61.8-.9,1.2a7.67,7.67,0,0,1-2.08,2.28A2.78,2.78,0,0,0,.49,80.22v1.17c.13.53.28,1.11.44,1.19s.58-.14,1.14-.4l.21-.1a7.46,7.46,0,0,0,3.07-3.27l.36-.58c2.45-3.88,4.8-7.74,7-11.47a55,55,0,0,1,4.71-7.14l.36-.44.07.57a21.83,21.83,0,0,1-.07,5c-.06.69-.13,1.41-.16,2.12-.07,1.46-.23,2.93-.39,4.36-.1.85-.19,1.73-.27,2.59-.11,1.2-.18,2.44-.26,3.63a51.55,51.55,0,0,1-1.36,10.38,13.6,13.6,0,0,0-.3,4.09,23.6,23.6,0,0,1,0,2.52A3,3,0,0,0,15.9,96.46Zm6.85-21h0a1.06,1.06,0,0,1-.93-.31,1,1,0,0,1,.06-.87c.07-.16.05-.21.05-.22a1.18,1.18,0,0,0-.39-.07c-.32,0-.51.13-.8.4l-.08.07-.12.14c-.16.18-.42.49-.83.31s-.4-.71-.35-1a.77.77,0,0,0,0-.15c.23-1.82.32-3.68.4-5.48,0-.53.05-1.06.08-1.59,0-.71.06-1.43.08-2.13a42.4,42.4,0,0,1,.32-4.74,1.54,1.54,0,0,1,1.38-1.47c.24-.06.49-.1.73-.14A3,3,0,0,0,24.71,57a1.2,1.2,0,0,1,1.44-.37.83.83,0,0,1,.39,1,2.25,2.25,0,0,0,0,.26c0,.17,0,.34,0,.5a3,3,0,0,0,.05.69,1.84,1.84,0,0,1-.94,2.23l-.08,0a2.15,2.15,0,0,0-.47.32,3.09,3.09,0,0,1-.39.33c-.44.32-.56.47-.46.69s.64.13,1.15,0a.9.9,0,0,1,.8,0,1.06,1.06,0,0,1,.36.81c.3,3,.14,3.27-2.49,4.6h0l-.05,0a2.11,2.11,0,0,1-.52.26c-.47.19-.52.26-.47.43s.26.24.9.08l.21,0c.34-.08.69-.12.89.11s.08.64,0,.77a2,2,0,0,1-.17.32c-.17.27-.16.28-.08.34s.21.08.49-.18a2.1,2.1,0,0,1,.47-.34l.22-.1.1.21a5.42,5.42,0,0,1,.44,2.66v.56A1.27,1.27,0,0,1,26,74.3,5.47,5.47,0,0,1,22.75,75.42Zm-1.3-2h.12c.29,0,.63.05.78.32a.71.71,0,0,1,0,.66c-.14.32-.1.4-.09.4s.09.09.51.09h0a5,5,0,0,0,2.93-1,.82.82,0,0,0,.37-.73v-.58a5.55,5.55,0,0,0-.27-2.17l-.14.12c-.25.22-.62.56-1.11.21s-.19-.79-.05-1a1,1,0,0,0,.12-.23.54.54,0,0,0,.06-.28H24.6a1.91,1.91,0,0,0-.35.05l-.2,0c-.48.12-1.28.32-1.49-.42s.38-.88.76-1a1.49,1.49,0,0,0,.4-.2l.13-.07c2.46-1.25,2.52-1.36,2.24-4.12,0-.35-.11-.43-.14-.45s-.12,0-.38,0c-.54.17-1.43.45-1.75-.23s.23-1,.61-1.29a3.64,3.64,0,0,0,.34-.28,2.27,2.27,0,0,1,.58-.41l.08,0a1.34,1.34,0,0,0,.7-1.68,4.4,4.4,0,0,1-.07-.8c0-.16,0-.31,0-.46a1.37,1.37,0,0,1,0-.35c0-.31,0-.4-.11-.46a.7.7,0,0,0-.81.18,3.38,3.38,0,0,1-2.69,1.41l-.7.13a1.06,1.06,0,0,0-1,1.06,43.81,43.81,0,0,0-.32,4.69c0,.7,0,1.42-.08,2.13,0,.53-.05,1.06-.08,1.59-.08,1.81-.17,3.68-.4,5.52l0,.18c-.06.34,0,.39.07.44s.08,0,.25-.18a1.49,1.49,0,0,1,.17-.18l.07-.07A1.58,1.58,0,0,1,21.45,73.45ZM20.9,57.36a.52.52,0,0,1-.24,0c-.32-.16-.39-.6-.42-1a2.9,2.9,0,0,1,.6-2.37,16.79,16.79,0,0,0,2.45-3.28c.29-.47.6-.95.92-1.42l.09-.14c.22-.35.58-.92,1.34-.62a1.08,1.08,0,0,1,.65,1.19,2.53,2.53,0,0,0,0,.28c.05.57.11,1.15.17,1.72l.07.7a2.08,2.08,0,0,1-1.43,2.36A9.2,9.2,0,0,0,23,56.11a12.76,12.76,0,0,1-1.24.91A1.61,1.61,0,0,1,20.9,57.36Zm4.34-8.47c-.2,0-.33.16-.52.47l-.11.16c-.31.46-.61.94-.9,1.4a17.27,17.27,0,0,1-2.53,3.37,2.64,2.64,0,0,0-.45,2c0,.54.14.6.15.6s.14,0,.57-.26.81-.58,1.2-.88a9.38,9.38,0,0,1,2.27-1.46,1.6,1.6,0,0,0,1.13-1.85h0L26,51.73c-.06-.58-.12-1.16-.17-1.74,0-.1,0-.21,0-.31,0-.41,0-.62-.33-.74A.63.63,0,0,0,25.24,48.89Z"/><path class="cls-1" d="M54.34,36a13.47,13.47,0,0,1-1.41,5.71c-1.31,3.08-2.33,6.3-4,9.21a15.49,15.49,0,0,0-1.35,2.74c-.2.6-.08.85.63.66a8.52,8.52,0,0,0,2.91-1.78,19.74,19.74,0,0,1,6.66-3.32c1.85-.52,4,.28,5.62,1.48,1.26.91,1.26,3.43-.13,4.9-2.17,2.31-4.11,4.87-6.88,6.56A7.83,7.83,0,0,1,52,63.5c-.55,0-1,0-1.11.78a55.66,55.66,0,0,1-2.13,10.51A30.1,30.1,0,0,1,45.58,83a17.67,17.67,0,0,1-4,4.4c-1,.79-1.79,1.74-3.15,1.94A6.8,6.8,0,0,1,35.3,89c-.65-.22-.47-.56-.15-.89a3.91,3.91,0,0,1,.94-.79c4.13-2.27,5.72-6.43,7.36-10.38a33,33,0,0,0,2.7-9.13,10.35,10.35,0,0,0-.26-4.85,4.15,4.15,0,0,0-1.81-2.22,4.15,4.15,0,0,1-1.58-5.28c2.72-4.93,4.55-10.24,6.5-15.47.91-2.44,1-5.18,1.43-7.79.12-.79,0-1.61-1.11-1.71-.29,0-.46-.15-.35-.48a1.14,1.14,0,0,1,.94-.86,3.39,3.39,0,0,1,3.39,2.25C53.74,33,54.48,34.51,54.34,36Zm5.22,16.78a1.19,1.19,0,0,0-.75-1.35,1.94,1.94,0,0,0-2.08.2c-2.76,1.85-5.68,3.46-8.27,5.58-.85.69-.87,1.25,0,2a10.79,10.79,0,0,1,1.43,1.67c.83,1.18,1.19,1.26,2.39.56,3-1.74,5-4.55,7-7.26A1.92,1.92,0,0,0,59.56,52.74Z"/><path class="cls-1" d="M37.64,89.62a7.53,7.53,0,0,1-2.41-.44.79.79,0,0,1-.6-.5.89.89,0,0,1,.34-.79,4.59,4.59,0,0,1,1-.84c3.89-2.13,5.5-6,7.05-9.78l.2-.48a32.76,32.76,0,0,0,2.69-9.05A10.29,10.29,0,0,0,45.66,63,3.88,3.88,0,0,0,44,60.9a4.4,4.4,0,0,1-1.67-5.61,97.85,97.85,0,0,0,5.78-13.54c.24-.63.47-1.27.71-1.9a25.37,25.37,0,0,0,1.14-5.66c.09-.69.18-1.39.28-2.08A1.4,1.4,0,0,0,50,31a1,1,0,0,0-.73-.34.65.65,0,0,1-.53-.26.56.56,0,0,1,0-.54,1.34,1.34,0,0,1,1.14-1,3.63,3.63,0,0,1,3.66,2.42c.12.44.26.89.41,1.32A8.63,8.63,0,0,1,54.59,36a13.67,13.67,0,0,1-1.43,5.79c-.39.93-.77,1.88-1.13,2.8A44.72,44.72,0,0,1,49.11,51a15.68,15.68,0,0,0-1.33,2.7.94.94,0,0,0-.07.39h.07a1.37,1.37,0,0,0,.34-.06,7,7,0,0,0,2.47-1.46l.35-.27A19.84,19.84,0,0,1,57.68,49c1.72-.49,3.84.07,5.84,1.51a2.68,2.68,0,0,1,1,2,4.35,4.35,0,0,1-1.11,3.28c-.49.51-1,1.05-1.43,1.57a25.23,25.23,0,0,1-5.51,5A8.21,8.21,0,0,1,52,63.75c-.58,0-.82,0-.86.55A56.71,56.71,0,0,1,49,74.86l-.16.55a28.26,28.26,0,0,1-3,7.7,18,18,0,0,1-4,4.46l-.57.48a5.27,5.27,0,0,1-2.7,1.51A5.69,5.69,0,0,1,37.64,89.62ZM49.18,30.16a.63.63,0,0,0,.16,0,1.51,1.51,0,0,1,1.08.52,1.9,1.9,0,0,1,.26,1.47c-.11.68-.19,1.39-.28,2.07A25.47,25.47,0,0,1,49.23,40c-.23.64-.47,1.27-.7,1.91a99.8,99.8,0,0,1-5.81,13.6,3.92,3.92,0,0,0,1.48,4.94,4.34,4.34,0,0,1,1.92,2.35,10.65,10.65,0,0,1,.28,5A33.45,33.45,0,0,1,43.68,77l-.2.47c-1.59,3.84-3.23,7.81-7.27,10a3.72,3.72,0,0,0-.88.75c-.24.25-.22.32-.22.33s.06.08.27.15a6.25,6.25,0,0,0,3,.36,4.76,4.76,0,0,0,2.45-1.39l.58-.49a17.85,17.85,0,0,0,4-4.34,28.09,28.09,0,0,0,3-7.57l.15-.56a55,55,0,0,0,2.12-10.46c.09-1,.86-1,1.37-1a7.52,7.52,0,0,0,4.24-1.35A25.12,25.12,0,0,0,61.62,57c.47-.52,1-1.06,1.44-1.58a3.79,3.79,0,0,0,1-2.89,2.24,2.24,0,0,0-.81-1.64,6.56,6.56,0,0,0-5.42-1.44,19.5,19.5,0,0,0-6.57,3.28L50.9,53a7.45,7.45,0,0,1-2.65,1.54c-.28.08-.68.15-.9-.08a.88.88,0,0,1,0-.89,15.23,15.23,0,0,1,1.37-2.78,46.05,46.05,0,0,0,2.88-6.38c.37-.92.74-1.88,1.14-2.81A13.28,13.28,0,0,0,54.1,36h0v0a8.49,8.49,0,0,0-.62-3.18c-.15-.43-.29-.88-.42-1.34a3.12,3.12,0,0,0-3.12-2.06.88.88,0,0,0-.74.69.48.48,0,0,0,0,.12Zm1.91,32c-.51,0-.89-.35-1.43-1.11a10.82,10.82,0,0,0-1.39-1.64,1.72,1.72,0,0,1-.71-1.26A1.66,1.66,0,0,1,48.3,57a55.46,55.46,0,0,1,5.58-3.85c.9-.57,1.82-1.15,2.71-1.75a2.16,2.16,0,0,1,2.33-.21,1.43,1.43,0,0,1,.89,1.57,2.17,2.17,0,0,1-.39,1.59L59,55c-1.83,2.49-3.73,5.06-6.58,6.7A2.8,2.8,0,0,1,51.09,62.14Zm6.85-10.72a2,2,0,0,0-1.08.37C56,52.39,55,53,54.15,53.54a54.4,54.4,0,0,0-5.53,3.82c-.38.3-.55.56-.56.79s.17.53.54.88a11.12,11.12,0,0,1,1.46,1.71c.76,1.07,1,1.12,2.07.49,2.75-1.59,4.62-4.12,6.43-6.56L59,54a1.64,1.64,0,0,0,.3-1.26V52.7a1,1,0,0,0-.62-1.09A1.67,1.67,0,0,0,57.94,51.42Z"/><path class="cls-1" d="M52.86,75.11a1,1,0,0,1,1-.1c1.37.93,3.16,1.09,4.32,2.43a6.72,6.72,0,0,0,1.5,1c3,1.93,6,3.75,8.54,6.31a10,10,0,0,1,2.56,5.06A1.79,1.79,0,0,1,68.5,92a5.45,5.45,0,0,0-1.79-.34c-1.89.23-2.66-1-3.21-2.41a10.32,10.32,0,0,0-1.4-2.13A43.5,43.5,0,0,0,58,81.76c-1.25-1.28-1.93-3-3.49-4A6,6,0,0,1,52.86,75.11Z"/><path class="cls-1" d="M69,92.29a2.76,2.76,0,0,1-.57-.06l-.54-.15a3.18,3.18,0,0,0-1.17-.19c-2.07.25-2.91-1.15-3.47-2.56a6.35,6.35,0,0,0-1-1.54c-.13-.18-.27-.35-.4-.54-.31-.43-.61-.87-.92-1.31a29.53,29.53,0,0,0-3.11-4,12.67,12.67,0,0,1-1.34-1.7,8.36,8.36,0,0,0-2.11-2.32,4.82,4.82,0,0,1-1.56-2.22c-.07-.17-.15-.33-.22-.48l-.1-.21.19-.11A1.17,1.17,0,0,1,54,74.8a9.14,9.14,0,0,0,1.72.84,6.43,6.43,0,0,1,2.66,1.64,3.92,3.92,0,0,0,1,.73l.45.27L61,79a42.33,42.33,0,0,1,7.45,5.62A10.16,10.16,0,0,1,71,89.81a2,2,0,0,1-.52,1.9A2.1,2.1,0,0,1,69,92.29Zm-2.12-.9a4.18,4.18,0,0,1,1.15.22l.51.14a1.7,1.7,0,0,0,1.61-.39,1.52,1.52,0,0,0,.39-1.45A9.65,9.65,0,0,0,68.06,85a40.78,40.78,0,0,0-7.37-5.55l-1.12-.72c-.14-.1-.29-.18-.43-.27A4,4,0,0,1,58,77.6a6,6,0,0,0-2.48-1.5,9.72,9.72,0,0,1-1.8-.89.61.61,0,0,0-.56,0c0,.09.09.18.13.27a4.46,4.46,0,0,0,1.38,2A8.8,8.8,0,0,1,56.93,80a12.65,12.65,0,0,0,1.29,1.63,30.43,30.43,0,0,1,3.17,4.07c.3.44.6.88.91,1.31l.39.52a6.49,6.49,0,0,1,1,1.66c.59,1.5,1.32,2.45,3,2.25Z"/><path class="cls-1" d="M21.3,26.56c1.38-.21,1.85.77,2.13,1.78A11,11,0,0,1,24,32.08a32.17,32.17,0,0,0,.26,3.67c0,.71.34.79.84.33A6,6,0,0,0,26.55,34q1.64-3.7,3.22-7.42a3.71,3.71,0,0,0,.32-3.18c-.14-.3-.16-.74.2-.87a1.74,1.74,0,0,1,1.65.14,3.36,3.36,0,0,1,1.24,3.9c-.11.31-.22.62-.34.92-.27.7-.08.93.66.72s1.34-.42,2,.15c.35.31.94.46.79,1.1a1.45,1.45,0,0,1-1.13,1.18c-.91.22-1.79.55-2.69.8a6.85,6.85,0,0,0-4,3.2A9.3,9.3,0,0,1,25,37.79a2.38,2.38,0,0,1-2,.2,1,1,0,0,0-1.14.19c-.77.71-1.07.11-1.31-.5a2.25,2.25,0,0,1-.09-1c.17-2.56-.59-5-.77-7.55a1,1,0,0,0-.86-.91c-.3-.06-.77,0-.72-.45a1,1,0,0,1,.83-.94Z"/><path class="cls-1" d="M21.18,38.75l-.15,0c-.41-.09-.62-.54-.78-1a2.6,2.6,0,0,1-.11-1.08,20.45,20.45,0,0,0-.39-4.63c-.15-.94-.31-1.91-.38-2.88a.73.73,0,0,0-.66-.69l-.19,0a.85.85,0,0,1-.61-.23.6.6,0,0,1-.12-.46,1.21,1.21,0,0,1,1.05-1.16l1.71-.21.72-.09c1.77-.27,2.21,1.28,2.4,1.95a11.14,11.14,0,0,1,.57,3.83,12.78,12.78,0,0,0,.12,2.23c.06.46.12.93.14,1.4,0,.31.08.39.09.39s.1,0,.33-.22a5.75,5.75,0,0,0,1.41-2c1-2.25,2-4.68,3.21-7.42a3.43,3.43,0,0,0,.32-3,1.06,1.06,0,0,1-.05-.83.66.66,0,0,1,.4-.37,2,2,0,0,1,1.87.16,3.63,3.63,0,0,1,1.33,4.19l-.12.33c-.07.2-.14.4-.22.6S33,28,33,28h0s.1,0,.45-.06l.09,0a2,2,0,0,1,2.11.23l.27.19a1,1,0,0,1,.61,1.14,1.74,1.74,0,0,1-1.32,1.37c-.55.13-1.1.31-1.63.48l-1.05.32a6.5,6.5,0,0,0-3.87,3.09A9.54,9.54,0,0,1,25.07,38a2.63,2.63,0,0,1-2.23.21.75.75,0,0,0-.88.14A1.2,1.2,0,0,1,21.18,38.75Zm.48-12-.32,0h0l-.72.08-1.71.22a.71.71,0,0,0-.61.72.21.21,0,0,0,0,.09s.2,0,.28.06a.93.93,0,0,1,.24,0,1.2,1.2,0,0,1,1.05,1.13c.07.95.23,1.91.38,2.84a20.79,20.79,0,0,1,.39,4.75,2.35,2.35,0,0,0,.08.86c.07.19.24.62.43.66s.28-.06.48-.25A1.25,1.25,0,0,1,23,37.75a2.14,2.14,0,0,0,1.82-.17,9,9,0,0,0,3.39-3.09,7.09,7.09,0,0,1,4.15-3.3l1-.32c.54-.17,1.1-.35,1.67-.49a1.21,1.21,0,0,0,.94-1c.07-.3-.08-.42-.4-.63a3.33,3.33,0,0,1-.32-.24c-.5-.45-1-.3-1.64-.12l-.09,0c-.3.09-.73.17-1-.08s-.11-.67,0-1,.15-.39.22-.59l.12-.32a3.15,3.15,0,0,0-1.15-3.62,1.49,1.49,0,0,0-1.42-.1.13.13,0,0,0-.11.09.56.56,0,0,0,0,.43A4,4,0,0,1,30,26.65c-1.17,2.74-2.23,5.17-3.22,7.43a6.36,6.36,0,0,1-1.53,2.19c-.12.11-.5.45-.86.31s-.38-.65-.38-.82c0-.46-.08-.92-.13-1.37a12.8,12.8,0,0,1-.14-2.33,10.55,10.55,0,0,0-.55-3.66C22.92,27.43,22.54,26.78,21.66,26.78Z"/><path class="cls-1" d="M16.36,35.27a3.86,3.86,0,0,1-.18,1.42c-.37,1-1,1.22-1.88.57a7,7,0,0,1-1.73-2.64.56.56,0,0,1,.18-.76.48.48,0,0,1,.67.14c.83,1.27,1.21.13,1.69-.33.25-.24.35-.76.78-.63s.17.57.23.87C16.21,34.43,16.3,35,16.36,35.27Z"/><path class="cls-1" d="M15.17,37.88a1.69,1.69,0,0,1-1-.42,6.1,6.1,0,0,1-1.62-2.34l-.18-.39a.8.8,0,0,1,.28-1.08.72.72,0,0,1,1,.21c.28.42.44.47.5.47s.34-.25.5-.46a2.92,2.92,0,0,1,.32-.38,1.58,1.58,0,0,0,.16-.22c.14-.23.38-.61.86-.47s.41.56.4.81a1.12,1.12,0,0,0,0,.26c.07.37.14.74.19,1l.06.34v0a4.51,4.51,0,0,1-.2,1.5,1.51,1.51,0,0,1-1,1.06A1.11,1.11,0,0,1,15.17,37.88ZM13,34a.33.33,0,0,0-.15,0c-.24.14-.11.41-.09.45s.12.25.19.38a5.6,5.6,0,0,0,1.48,2.17,1,1,0,0,0,.86.29,1.16,1.16,0,0,0,.63-.75,3.84,3.84,0,0,0,.16-1.32L16.06,35c0-.3-.12-.67-.18-1a1.16,1.16,0,0,1,0-.37c0-.29,0-.3,0-.32s-.14,0-.3.26a1.78,1.78,0,0,1-.24.32,2.26,2.26,0,0,0-.27.32c-.24.32-.5.67-.91.66s-.59-.23-.89-.7A.21.21,0,0,0,13,34Z"/></g></g></svg>